<svg width="19" height="19" viewBox="0 0 19 19" fill="none" xmlns="http://www.w3.org/2000/svg">
<path d="M8.14807 3.05514L1.44265 14.2493C1.3044 14.4887 1.23125 14.7602 1.23047 15.0366C1.2297 15.3131 1.30133 15.585 1.43824 15.8251C1.57515 16.0653 1.77256 16.2655 2.01084 16.4057C2.24911 16.5459 2.51995 16.6213 2.7964 16.6243H16.2072C16.4837 16.6213 16.7545 16.5459 16.9928 16.4057C17.2311 16.2655 17.4285 16.0653 17.5654 15.8251C17.7023 15.585 17.7739 15.3131 17.7732 15.0366C17.7724 14.7602 17.6992 14.4887 17.561 14.2493L10.8556 3.05514C10.7144 2.82248 10.5157 2.63011 10.2786 2.49661C10.0415 2.3631 9.77394 2.29297 9.50182 2.29297C9.22969 2.29297 8.96216 2.3631 8.72504 2.49661C8.48791 2.63011 8.2892 2.82248 8.14807 3.05514Z" fill="#A94B4B"/>
<path d="M9.5 7.125V10.2917" stroke="#F5F5F5" stroke-width="2" stroke-linecap="round" stroke-linejoin="round"/>
<path d="M9.5 13.457H9.50875" stroke="#F5F5F5" stroke-width="2" stroke-linecap="round" stroke-linejoin="round"/>
</svg>
