<svg width="18" height="20" viewBox="0 0 18 20" fill="none" xmlns="http://www.w3.org/2000/svg">
<path d="M9.46852 1.41435C9.19461 1.19522 8.80539 1.19522 8.53148 1.41435L2.28209 6.41386C1.62975 6.93573 1.25 7.72585 1.25 8.56125V16.4C1.25 17.0165 1.48792 17.612 1.91787 18.0542C2.34851 18.4971 2.93716 18.75 3.55556 18.75H14.4444C15.0628 18.75 15.6515 18.4971 16.0821 18.0542C16.5121 17.612 16.75 17.0165 16.75 16.4V8.56125C16.75 7.72585 16.3703 6.93574 15.7179 6.41386L9.46852 1.41435Z" stroke="white" stroke-width="1.5" stroke-linecap="round" stroke-linejoin="round"/>
<path d="M6.5 11C6.5 10.1716 7.17157 9.5 8 9.5H10C10.8284 9.5 11.5 10.1716 11.5 11V18.5H6.5V11Z" stroke="white"/>
</svg>
