<svg width="28" height="28" viewBox="0 0 28 28" fill="none" xmlns="http://www.w3.org/2000/svg">
<path d="M14 27C21.1797 27 27 21.1797 27 14C27 6.8203 21.1797 1 14 1C6.8203 1 1 6.8203 1 14C1 21.1797 6.8203 27 14 27Z" stroke="white" stroke-width="2"/>
<path d="M10.9453 7.57129H16.4453C18.6453 7.57129 20.4453 9.37129 20.4453 11.5713V17.0713C20.4453 19.2713 18.6453 21.0713 16.4453 21.0713H10.9453C8.74531 21.0713 6.94531 19.2713 6.94531 17.0713V11.5713C6.94531 9.37129 8.74531 7.57129 10.9453 7.57129Z" fill="white"/>
<path d="M13.7453 17.6713C13.0453 17.6713 12.3453 17.4713 11.7453 16.9713C10.9453 16.4713 10.4453 15.6713 10.3453 14.7713C10.0453 12.9713 11.3453 11.1713 13.2453 10.8713C13.5453 10.8713 13.9453 10.8713 14.2453 10.8713C15.7453 11.0713 16.8453 12.2713 17.1453 13.7713C17.2453 14.6713 17.0453 15.5713 16.5453 16.2713C16.0453 16.9713 15.2453 17.4713 14.3453 17.5713C14.0453 17.6713 13.8453 17.6713 13.7453 17.6713ZM13.7453 11.8713C13.6453 11.8713 13.5453 11.8713 13.4453 11.8713C12.7453 12.0713 12.1453 12.3713 11.8453 12.8713C11.4453 13.3713 11.2453 13.9713 11.3453 14.5713C11.4453 15.2713 11.8453 15.7713 12.3453 16.1713C12.8453 16.4713 13.4453 16.6713 14.0453 16.5713C14.6453 16.4713 15.2453 16.1713 15.5453 15.6713C15.9453 15.1713 16.0453 14.5713 15.9453 13.9713C15.7453 12.9713 15.0453 12.1713 13.9453 11.9713C13.9453 11.8713 13.8453 11.8713 13.7453 11.8713Z" fill="#4D4D4D"/>
<path d="M17.6453 11.1713C17.2453 11.1713 16.8453 10.7713 16.8453 10.3713C16.8453 9.97129 17.2453 9.57129 17.6453 9.57129C18.0453 9.57129 18.4453 9.97129 18.4453 10.3713C18.4453 10.7713 18.0453 11.1713 17.6453 11.1713Z" fill="#4D4D4D"/>
</svg>
