<svg width="29" height="29" viewBox="0 0 29 29" fill="none" xmlns="http://www.w3.org/2000/svg">
<path d="M20.6168 8.24805C19.0168 6.94805 16.9168 6.24805 14.9168 6.24805C12.8168 6.24805 10.8168 6.94805 9.2168 8.24805C7.6168 9.44805 6.7168 11.148 6.7168 13.048C6.7168 14.748 7.5168 16.448 8.8168 17.648C10.2168 18.848 11.9168 19.548 13.7168 19.648V22.448C13.7168 22.648 13.9168 22.748 14.0168 22.748C14.1168 22.748 14.1168 22.748 14.2168 22.648L19.3168 18.748C20.3168 18.048 21.2168 17.148 21.9168 16.248C22.6168 15.348 23.0168 14.248 23.0168 13.048C23.0168 11.148 22.1168 9.44805 20.6168 8.24805Z" fill="white"/>
<path d="M17.1168 11.048C17.1168 10.748 16.9168 10.548 16.7168 10.548C16.5168 10.548 16.3168 10.748 16.3168 11.048C16.3168 11.648 16.3168 12.148 16.3168 12.748C16.3168 12.848 16.3168 12.948 16.3168 13.048C16.2168 12.948 16.2168 12.848 16.1168 12.848C15.6168 12.148 15.1168 11.548 14.6168 10.848C14.5168 10.648 14.3168 10.548 14.1168 10.648C13.9168 10.648 13.7168 10.848 13.8168 11.048C13.8168 12.148 13.8168 13.148 13.8168 14.248C13.8168 14.448 13.9168 14.548 14.0168 14.648C14.3168 14.748 14.6168 14.548 14.6168 14.148C14.6168 13.648 14.6168 13.148 14.6168 12.548V12.348C14.7168 12.348 14.7168 12.448 14.8168 12.548C15.3168 13.248 15.8168 13.848 16.3168 14.548C16.4168 14.748 16.6168 14.848 16.8168 14.748C17.0168 14.648 17.1168 14.448 17.1168 14.248C17.1168 13.148 17.1168 12.148 17.1168 11.048Z" fill="#4D4D4D"/>
<path d="M18.7167 11.448C18.8167 11.448 18.9167 11.448 19.0167 11.448C19.3167 11.448 19.6167 11.448 19.9167 11.448C20.0167 11.448 20.1167 11.448 20.2167 11.348C20.4167 11.248 20.5167 11.048 20.4167 10.848C20.4167 10.648 20.2167 10.548 20.0167 10.548C19.5167 10.548 18.9167 10.548 18.4167 10.548C18.0167 10.548 17.9167 10.748 17.9167 11.048C17.9167 12.048 17.9167 13.048 17.9167 14.048C17.9167 14.448 18.1167 14.548 18.4167 14.548C18.9167 14.548 19.4167 14.548 19.9167 14.548C20.0167 14.548 20.1167 14.548 20.1167 14.548C20.3167 14.448 20.4167 14.248 20.4167 14.048C20.4167 13.948 20.3167 13.848 20.2167 13.748C20.1167 13.748 20.0167 13.748 19.9167 13.748C19.5167 13.748 19.1167 13.748 18.8167 13.748V13.148C18.9167 13.148 18.9167 13.148 19.0167 13.148C19.4167 13.148 19.7167 13.148 20.1167 13.148C20.4167 13.148 20.6167 12.948 20.6167 12.748C20.6167 12.548 20.4167 12.348 20.1167 12.348C19.9167 12.348 19.7167 12.348 19.5167 12.348C18.6167 12.248 18.6167 12.248 18.7167 11.448C18.7167 11.448 18.7167 11.548 18.7167 11.448Z" fill="#4D4D4D"/>
<path d="M11.4168 13.948C11.3168 13.948 11.2168 13.948 11.2168 13.948H10.1168V13.548C10.1168 12.748 10.1168 11.948 10.1168 11.148C10.1168 10.848 9.9168 10.648 9.7168 10.648C9.5168 10.648 9.2168 10.848 9.2168 11.148C9.2168 12.148 9.2168 13.248 9.2168 14.248C9.2168 14.448 9.3168 14.748 9.6168 14.748H9.7168C10.0168 14.748 11.1168 14.748 11.4168 14.748C11.6168 14.748 11.8168 14.548 11.8168 14.348C11.8168 14.148 11.6168 13.948 11.4168 13.948Z" fill="#4D4D4D"/>
<path d="M13.1168 11.048C13.1168 10.748 13.0168 10.648 12.7168 10.648C12.4168 10.648 12.3168 10.748 12.3168 11.048C12.3168 12.148 12.3168 13.248 12.3168 14.348C12.3168 14.648 12.4168 14.748 12.7168 14.748C13.0168 14.748 13.1168 14.648 13.1168 14.348C13.1168 13.848 13.1168 13.248 13.1168 12.748C13.1168 12.248 13.1168 11.548 13.1168 11.048Z" fill="#4D4D4D"/>
<path d="M14.6748 27.2998C21.8545 27.2998 27.6748 21.4795 27.6748 14.2998C27.6748 7.1201 21.8545 1.2998 14.6748 1.2998C7.4951 1.2998 1.6748 7.1201 1.6748 14.2998C1.6748 21.4795 7.4951 27.2998 14.6748 27.2998Z" stroke="white" stroke-width="2"/>
</svg>
