<svg width="170" height="40" viewBox="0 0 170 40" fill="none" xmlns="http://www.w3.org/2000/svg">
<path d="M13.5752 23.4004C13.0752 21.7004 12.0754 20.2996 10.7754 19.0996L9.4751 18.2002L8.87549 17.7998L8.37549 17.5L8.27539 17.4004L7.77539 17L7.4751 16.7998L7.0752 16.5C5.3752 15.4 3.8752 14.1 2.5752 12.5L1.0752 17.0996L0.875488 17.7002L0.575195 18.5C0.575195 18.6 0.575195 18.6998 0.575195 18.7998C0.875195 19.7998 2.77529 21.4998 6.67529 24.2998L6.87549 24.5L7.27539 24.7998L7.67529 25.0996C10.2753 26.9996 12.0751 28.4002 12.9751 29.7002C12.9751 29.7002 12.9752 29.7998 13.0752 29.7998C14.0752 27.6998 14.1752 25.5004 13.5752 23.4004Z" fill="white"/>
<path d="M12.7752 30.9004C12.5752 29.9004 10.8751 28.2996 7.67514 26.0996L7.57504 26.2998C5.97504 31.1998 5.47504 33.7996 6.07504 34.5996C6.17504 34.6996 6.27534 34.7002 6.37534 34.7002C7.57534 34.6002 10.1752 32.8004 12.7752 30.9004Z" fill="white"/>
<path d="M8.57518 16.4004C9.57518 16.0004 10.7752 12.4004 11.5752 9.90039H10.7754C5.67537 9.90039 3.27537 10.2996 2.77537 11.0996C2.67537 12.1996 6.47518 15.0004 8.57518 16.4004Z" fill="white"/>
<path d="M20.9751 8C22.1751 9.7 24.1754 10.7002 26.2754 10.7002C27.0754 10.7002 27.7751 10.6004 28.4751 10.4004C28.3751 10.0004 28.1752 9.6002 28.0752 9.2002L27.8755 8.59961C26.6755 4.99961 25.3753 1.2 24.1753 1C23.1753 1.1 21.7751 5.3 20.9751 8Z" fill="white"/>
<path d="M27.8755 31.2002H27.7754C26.5754 31.2002 24.1753 32.8002 21.6753 34.7002L21.8755 34.9004C25.6755 37.7004 27.8751 38.9004 28.9751 38.9004C29.0751 38.9004 29.2755 38.8998 29.3755 38.7998C30.1755 37.9998 28.7755 33.6002 27.8755 31.2002Z" fill="white"/>
<path d="M33.9751 25.7998C32.6751 22.0998 32.2754 20.9998 31.7754 19.2998C31.6754 18.9998 31.6751 18.8004 31.4751 18.4004C30.1751 19.5004 29.0751 21.0002 28.4751 22.7002C27.9751 23.8002 27.7754 25.0002 27.7754 26.2002C27.7754 26.3002 27.7754 26.3004 27.7754 26.4004V26.5996C27.7754 28.0996 28.1754 29.4998 28.7754 30.7998C28.8754 30.9998 28.8751 31.0998 28.9751 31.2998C29.0751 31.4998 29.1754 31.7996 29.2754 32.0996C29.9754 33.9996 30.4753 36 30.6753 38L33.6753 35.7998L34.4751 35.2002L34.9751 34.7998L35.6753 34.2998C36.4753 33.2998 35.2751 29.4998 33.9751 25.7998Z" fill="white"/>
<path opacity="0.3" d="M14.7754 30.5C15.1754 30.2 15.5751 29.8996 15.9751 29.5996C15.5751 29.8996 15.1754 30.2 14.7754 30.5Z" fill="white"/>
<path d="M20.8755 28.2002C19.1755 28.2002 17.4751 28.6996 15.9751 29.5996C15.5751 29.8996 15.1754 30.2 14.7754 30.5L14.2754 30.9004L13.7754 31.2998L13.6753 31.4004L13.1753 31.7998L12.8755 32L12.4751 32.2998C10.9751 33.5998 9.17549 34.6004 7.37549 35.4004L11.3755 38.2002L11.8755 38.5996L12.5752 39.0996C12.6752 39.0996 12.7755 39.0996 12.8755 39.0996C13.9755 39.0996 16.0755 37.7998 19.8755 34.7998L20.0752 34.5996L20.4751 34.2998L20.8755 34C22.6755 32.5 24.6754 31.1998 26.7754 30.2998H26.8755C25.1755 28.8998 23.0755 28.2002 20.8755 28.2002Z" fill="white"/>
<path opacity="0.3" d="M13.6753 28.2002C13.7753 28.0002 13.8755 27.8 13.8755 27.5L13.6753 28.2002Z" fill="white"/>
<path opacity="0.3" d="M19.5752 9.5C19.4752 9.7 19.4755 9.9998 19.3755 10.2998C19.3755 9.9998 19.4752 9.8 19.5752 9.5Z" fill="white"/>
<path d="M17.9751 0.900391H16.4751C15.5751 1.10039 14.4751 3.39961 12.9751 8.59961C12.9751 8.69961 12.9755 8.80039 12.8755 8.90039C12.8755 9.00039 12.7754 9.20039 12.7754 9.40039C12.7754 9.60039 12.6753 9.70039 12.6753 9.90039C11.7753 13.0004 10.9752 15.2004 10.0752 16.4004H10.8755C14.6755 16.3004 18.0755 13.8002 19.3755 10.2002C19.4755 10.0002 19.4752 9.70039 19.5752 9.40039L19.8755 8.5L20.0752 7.90039L20.1753 7.7002C20.2753 7.5002 20.2755 7.29961 20.3755 7.09961L20.5752 6.5C20.5752 6.4 20.5753 6.3998 20.6753 6.2998C21.1753 4.2998 21.9751 2.5002 22.9751 0.700195L17.9751 0.900391Z" fill="white"/>
<path opacity="0.5" d="M31.8755 16.2998C31.5755 16.3998 31.2751 16.4 30.9751 16.5C31.2751 16.4 31.5755 16.3998 31.8755 16.2998Z" fill="white"/>
<path d="M37.2754 10C36.7754 10 36.2754 9.90039 35.7754 9.90039C33.9754 9.90039 32.1751 10.2002 30.4751 10.7002L29.8755 10.9004L29.4751 11H29.3755L28.9751 11.0996C28.1751 11.2996 27.2751 11.5 26.4751 11.5C24.8751 11.5 23.3752 10.9996 22.0752 10.0996L21.7754 9.90039V10C22.3754 13.5 25.2754 16.2 28.7754 16.5C29.0754 16.5 29.2752 16.5 29.5752 16.5C30.0752 16.5 30.5751 16.5004 30.9751 16.4004C31.2751 16.3004 31.5755 16.2002 31.8755 16.2002C32.7755 16.0002 33.6752 15.9 34.5752 16C35.9752 16.1 37.2752 16.4002 38.5752 16.7002L42.8755 11.2002C41.0755 10.6002 39.1754 10.2 37.2754 10Z" fill="white"/>
<path d="M47.7754 18.2998L46.6753 24.5996L45.2754 23.7002C45.2754 23.7002 46.2754 18.6002 46.2754 18.2002L47.7754 18.2998ZM52.7754 16.7002C52.4754 16.7002 52.2754 16.7996 52.2754 17.0996V17.2002V26.2998C52.2754 26.7998 52.1755 27.3002 51.8755 27.7002C51.4755 28.1002 50.8755 28.2002 50.3755 28.2002H49.2754L48.9751 26.4004L50.0752 26.5C50.4752 26.5 50.7754 26.3004 50.7754 25.9004V17.2002C50.7754 17.2002 50.7755 16.7998 50.3755 16.7998C50.1755 16.7998 50.0752 16.8996 50.0752 17.0996V18.2002C50.1752 20.2002 49.9751 22.2998 49.4751 24.2998C48.9751 25.8998 48.1752 27.4002 47.0752 28.7002L45.6753 27.5996C46.6753 26.4996 47.4751 25.1998 47.9751 23.7998C48.4751 21.6998 48.6752 19.6 48.5752 17.5C48.5752 16.7 47.9751 16.7998 47.9751 16.7998H45.6753V15.0996H48.9751C48.9751 15.0996 49.4751 15.1996 49.4751 14.5996V14.0996C49.4751 13.7996 49.2751 13.5996 48.9751 13.5996H46.3755V11.9004H49.1753C49.4753 11.9004 49.6753 11.7004 49.6753 11.4004V10.0996H51.4751V11.5C51.4751 11.7 51.5754 11.9004 51.7754 11.9004H51.8755H53.4751C53.4751 11.9004 54.4751 11.7998 54.4751 12.7998C54.4751 13.7998 53.4751 13.5996 53.4751 13.5996H52.0752C51.7752 13.5996 51.5752 13.7996 51.5752 14.0996C51.5752 14.0996 51.5752 14.1002 51.5752 14.2002V14.9004C51.5752 15.1004 51.7752 15.2998 52.0752 15.2998H53.6753C54.1753 15.2998 54.5752 15.6 54.5752 16V16.0996C54.5752 16.8996 53.6753 17 53.6753 17L52.7754 16.7002ZM54.4751 21.5996L52.9751 22L52.2754 18.5L53.6753 18.2002L54.4751 21.5996ZM56.5752 18.5996L55.7754 25.0996L54.2754 23.9004L55.0752 18.4004L56.5752 18.5996ZM61.6753 16.7002C61.4753 16.7002 61.2754 16.8996 61.2754 17.0996V17.2002V26.5996C61.2754 27.0996 61.1755 27.6 60.8755 28C60.4755 28.4 59.8755 28.5 59.3755 28.5H58.2754L57.8755 26.7002L58.9751 26.7998C59.3751 26.7998 59.6753 26.6002 59.6753 26.2002V17.2002C59.6753 17.2002 59.6754 16.9004 59.2754 16.9004C58.8754 16.9004 58.8755 17.2002 58.8755 17.2002V18.2998C58.9755 20.2998 58.7754 22.4004 58.2754 24.4004C57.7754 26.0004 56.8754 27.6004 55.7754 28.9004L54.3755 27.7998C55.3755 26.6998 56.1753 25.4 56.6753 24C57.0753 21.9 57.2754 19.7 57.2754 17.5C57.2754 16.9 56.7754 17 56.7754 17H54.9751V15.2998H57.5752C57.8752 15.3998 58.0753 15.2004 58.1753 14.9004C58.1753 14.9004 58.1753 14.8998 58.1753 14.7998V14.2002C58.1753 13.9002 57.9753 13.5996 57.6753 13.5996H57.5752H55.2754V11.9004H57.7754C57.9754 11.9004 58.1754 11.8 58.2754 11.5V11.4004V10H60.0752V11.4004C60.0752 11.4004 60.0751 11.7998 60.4751 11.7998H62.8755C63.2755 11.7998 63.6753 12.1996 63.6753 12.5996C63.6753 12.9996 63.2755 13.4004 62.8755 13.4004H60.6753C60.4753 13.4004 60.2754 13.5002 60.2754 13.7002V13.7998V14.5996C60.2754 15.0996 60.7754 15 60.7754 15H63.3755C63.7755 15 64.1753 15.3002 64.1753 15.7002V15.7998C64.1753 16.2998 63.8755 16.6002 63.3755 16.7002H61.6753ZM62.2754 25.7998L61.6753 18.7998L63.1753 18.5L63.8755 25.4004L62.2754 25.7998Z" fill="white"/>
<path d="M68.7754 23.5996L67.8755 28.5996H66.1753L67.0752 23.4004L68.7754 23.5996Z" fill="white"/>
<path d="M72.4751 12.9004L73.9751 13.5996L69.8755 20.2002C69.8755 20.2002 69.4755 20.7002 69.8755 20.7002C70.6755 20.6002 72.3755 20.4004 72.3755 20.4004L71.7754 18.9004L73.0752 18.5L74.5752 22.2002L73.0752 22.7002L72.7754 21.9004L67.6753 22.4004C67.6753 22.4004 66.3751 22.5 66.9751 21.5L70.0752 16.9004L67.6753 17.2002C67.6753 17.2002 66.3753 17.3004 66.6753 16.4004C66.6753 16.3004 69.5752 10 69.5752 10L71.2754 10.5L68.9751 15.0996C68.9751 15.0996 68.7754 15.6 69.2754 15.5C69.7754 15.5 70.8755 15.2998 70.8755 15.2998" fill="white"/>
<path d="M69.6753 28.2002L69.4751 23.5L70.9751 23.2998L71.3755 28L69.6753 28.2002Z" fill="white"/>
<path d="M72.3755 26.7998L71.8755 23.0996L73.2754 22.7998L73.8755 26.4004L72.3755 26.7998Z" fill="white"/>
<path d="M73.9751 12V10.4004H84.0752C84.0752 10.4004 85.0752 10.4002 85.0752 11.2002C85.0752 12.2002 84.0752 12.0996 84.0752 12.0996L73.9751 12Z" fill="white"/>
<path d="M77.8755 21.2998H74.3755V19.5996H78.0752C78.2752 19.5996 78.4751 19.4002 78.4751 19.2002V17.9004H80.2754V19.4004C80.2754 19.4004 80.2752 19.7002 80.5752 19.7002H84.0752C84.5752 19.7002 84.9751 20 84.9751 20.5V20.5996C84.9751 21.0996 84.5752 21.5 84.0752 21.5H80.8755C80.3755 21.5 80.6753 21.9004 80.6753 21.9004L84.9751 28.9004H82.5752L80.2754 24.5996V29H78.4751V24.5996L75.2754 28.9004H73.1753L78.0752 22C78.1752 21.5 78.3755 21.2998 77.8755 21.2998Z" fill="white"/>
<path d="M75.4751 18L74.2754 14.2998L75.9751 13.7998L77.2754 17.5L75.4751 18Z" fill="white"/>
<path d="M78.6753 17.0996L78.2754 13.7002L80.0752 13.5L80.5752 17L78.6753 17.0996Z" fill="white"/>
<path d="M84.7754 13.7998L82.9751 18.2002L81.1753 17.4004L83.0752 13.2998L84.7754 13.7998Z" fill="white"/>
<path d="M89.8755 12.2998C89.8755 12.2998 90.7754 12.4 90.2754 11.5L89.6753 10.2002L91.4751 10L92.0752 11.2002C92.0752 11.2002 92.5755 12.2998 93.3755 12.2998H94.2754C94.2754 12.2998 95.2754 12.3002 95.2754 13.2002C95.2754 13.7002 94.8755 14.0996 94.3755 14.0996H94.2754H87.4751V12.2998H89.8755ZM87.9751 15.2998H93.4751C93.4751 15.2998 94.4751 15.2996 94.4751 16.0996C94.4751 16.8996 93.4751 16.9004 93.4751 16.9004H87.9751V15.2998ZM87.9751 18.2998H93.4751C93.4751 18.2998 94.4751 18.3002 94.4751 19.2002C94.4751 20.1002 93.3755 20 93.3755 20H87.8755L87.9751 18.2998ZM87.9751 21.5H93.3755C93.3755 21.5 94.4751 21.4002 94.4751 22.7002V28.5996H92.6753V27.7002H89.8755V28.7998H88.0752L87.9751 21.5ZM92.5752 23.2002H89.7754V26.0996H92.5752V23.2002ZM103.675 11.7998V15C103.675 15.3 103.675 15.6004 103.875 15.9004C104.075 16.1004 104.375 16.0996 104.675 16.0996H105.075C105.075 16.0996 105.975 16.1004 105.975 16.9004C105.975 17.7004 105.075 17.7002 105.075 17.7002H104.075C103.475 17.7002 102.875 17.6002 102.375 17.2002C101.975 16.7002 101.775 15.9998 101.875 15.2998V12.2002H99.0752V12.9004C99.0752 13.9004 98.9752 14.8002 98.5752 15.7002C97.9752 16.7002 97.1754 17.7004 96.2754 18.4004L94.7754 17.0996C95.5754 16.4996 96.2754 15.8004 96.7754 14.9004C97.1754 13.8004 97.2753 12.6996 97.1753 11.5996V10.5H102.675C102.575 10.5 103.675 10.3998 103.675 11.7998ZM104.775 20.2998C104.875 21.6998 104.575 23.2 103.975 24.5C103.575 25.3 102.875 25.9996 102.175 26.5996C102.975 26.8996 103.875 27 104.775 27C104.775 27 105.675 27.0004 105.675 27.9004C105.675 28.8004 104.675 28.7998 104.675 28.7998C103.175 28.7998 101.675 28.5004 100.275 27.9004C98.8754 28.8004 94.9751 28.7998 94.9751 28.7998V26.9004C96.0751 27.0004 97.2755 26.9 98.3755 26.5C97.8755 25.9 97.3752 25.2 97.0752 24.5C96.6752 23.5 96.3754 22.5004 96.2754 21.4004H98.0752C98.0752 22.0004 98.1755 22.6998 98.3755 23.2998C98.7755 24.3998 99.4751 25.2998 100.475 25.7998C101.275 25.2998 101.875 24.7004 102.275 23.9004C102.675 22.8004 102.775 21.6996 102.675 20.5996H95.4751V18.9004H102.975C103.075 18.8004 104.775 18.5998 104.775 20.2998Z" fill="white"/>
<path d="M117.175 13.2002C117.175 14.0002 116.275 14.0996 116.275 14.0996H108.075V12.4004H110.975C110.975 12.4004 111.875 12.5004 111.575 11.9004L110.775 10.2998L112.775 10.0996L113.675 11.9004C113.775 12.3004 114.175 12.5004 114.575 12.4004H116.375C116.775 12.3004 117.175 12.7002 117.175 13.2002ZM108.775 15.4004H115.675C116.075 15.4004 116.475 15.6996 116.475 16.0996C116.475 16.1996 116.475 16.1998 116.475 16.2998C116.475 16.6998 116.275 16.9996 115.875 17.0996C115.775 17.0996 115.775 17.0996 115.675 17.0996H108.775V15.4004ZM108.775 18.4004H115.675C115.675 18.4004 116.575 18.4002 116.575 19.2002C116.575 20.0002 115.675 20 115.675 20H108.775V18.4004ZM108.875 21.5996H115.275C115.875 21.4996 116.375 21.9996 116.475 22.5996C116.475 22.6996 116.475 22.8004 116.475 22.9004V28.7002H114.475V27.7998H110.775V28.9004H108.775L108.875 21.5996ZM114.475 23.2002H110.775V26.0996H114.475V23.2002ZM123.275 10V15.0996C123.275 15.4996 123.575 15.7998 123.875 15.7998C123.875 15.7998 123.875 15.7998 123.975 15.7998H126.175C126.675 15.6998 127.075 16.1 127.075 16.5C127.075 16.6 127.075 16.6002 127.075 16.7002C127.175 17.2002 126.775 17.6002 126.275 17.7002H126.175H123.875C123.175 17.7002 123.275 18.5 123.275 18.5V28.7998H121.275V18.2998C121.275 17.9998 121.075 17.7002 120.775 17.7002C120.675 17.7002 120.675 17.7002 120.575 17.7002H117.475V15.7998H120.675C120.975 15.7998 121.275 15.6002 121.275 15.2002V15.0996V9.90039L123.275 10Z" fill="white"/>
<path d="M143.075 20.7998C143.075 20.7998 144.275 20.6996 144.275 21.5996C144.375 22.5996 143.075 22.9004 143.075 22.9004L139.775 24H146.875C146.875 24 147.975 23.8998 148.075 24.7998C148.075 25.6998 146.875 25.5996 146.875 25.5996H139.775V26.9004C139.775 28.0004 139.175 28.5996 137.975 28.5996H134.775V27L137.275 27.0996C137.575 27.0996 137.875 26.8996 137.875 26.5996V26.5V25.7002H129.175V24.0996H137.875C137.975 23.7996 138.075 23.6004 138.175 23.4004C138.375 23.2004 138.575 23.1004 139.375 22.9004L141.375 22.4004H132.975V20.9004L143.075 20.7998ZM145.775 20H131.375V23H129.575V19.2998C129.575 18.8998 129.875 18.5 130.275 18.5C130.375 18.5 130.375 18.5 130.475 18.5V10.9004L134.775 10.2998L135.675 11.7998L132.275 12.2998V13.2998H135.375V14.7002H132.275V15.7998H135.375V17.2002H132.275V18.5H144.975V17.2002H142.075V15.7998H144.975V14.7002H142.075V13.2998H144.975V12.2002H141.875V10.5996H145.575C145.575 10.5996 146.675 10.6004 146.675 11.9004V18.5C146.675 18.5 147.675 18.4 147.675 19.5V23H145.875L145.775 20ZM138.875 12.7998L136.675 14.2002L135.675 12.9004L137.675 11.9004L136.575 10.9004L137.675 10L138.975 11.2998L140.375 10.4004L141.275 11.4004L140.075 12.2002L141.275 13.2998L140.075 14.0996L138.875 12.7998ZM138.875 16.9004L136.775 18.0996L135.975 16.7998L137.775 15.7998L136.675 14.7998L137.875 14L138.975 15.0996L140.575 14L141.475 15.0996L140.175 15.9004L141.175 17L139.975 17.9004L138.875 16.9004Z" fill="white"/>
<path d="M155.975 12C155.975 12 155.075 15.7998 154.875 16.2998C154.775 16.7998 154.875 17.2002 154.975 17.7002L156.175 21.5C156.575 22.5 156.075 23.6 155.075 24C154.975 24 154.875 24.0996 154.775 24.0996L152.375 24.2998V22.4004H153.775C154.575 22.4004 154.375 21.5 154.375 21.5L153.075 18C152.875 17.5 152.775 16.9004 152.975 16.4004C153.175 15.9004 153.975 12.5 153.975 12.5H151.875V28.9004H149.975V10.7998H154.775C156.275 10.6998 155.975 12 155.975 12ZM158.575 21H156.575V19.2998H167.275C167.275 19.2998 168.275 19.2002 168.275 20.2002C168.275 20.7002 167.775 21.0996 167.275 21.0996H165.175C165.175 21.0996 164.375 21.1 164.375 22V26.2002C164.375 26.5002 164.575 26.9004 164.875 26.9004C164.975 26.9004 164.975 26.9004 165.075 26.9004H168.175C168.675 26.9004 168.975 27.2998 168.975 27.7998C168.975 28.1998 168.575 28.5996 168.175 28.5996H164.475C163.875 28.5996 163.375 28.4996 162.975 28.0996C162.575 27.5996 162.375 26.9002 162.475 26.2002V21.7998C162.475 21.3998 162.175 21.1 161.775 21H161.675C160.975 21 160.975 21.7998 160.975 21.7998C160.975 23.2998 160.575 24.7004 159.775 25.9004C158.775 27.2004 157.475 28.1998 155.875 28.7998L154.675 27.0996C155.975 26.6996 157.275 26.0004 158.175 24.9004C158.775 24.0004 159.075 22.8998 159.175 21.7998C159.275 21.8998 159.375 21 158.575 21ZM166.375 17.2998H158.075V16.2998H156.575V11.7998H160.775C161.275 11.7998 161.075 11.4004 161.075 11.4004L160.475 10.2002L162.375 10L163.075 11.4004C163.175 11.7004 163.475 11.9004 163.875 11.9004H167.175C167.675 11.9004 168.075 12.2998 168.075 12.7998V12.9004V16.4004H166.575L166.375 17.2998ZM166.075 13.5996H158.475V15.5996H166.075V13.5996Z" fill="white"/>
<path d="M49.3755 34.9004H46.9751L46.3755 36.2998H45.5752L47.7754 31.4004H48.5752L50.7754 36.2998H49.9751L49.3755 34.9004ZM48.1753 32.2002L47.2754 34.2998H49.0752L48.1753 32.2002Z" fill="white"/>
<path d="M51.1753 32.7998H51.8755V33.2998C52.1755 32.8998 52.6754 32.7002 53.2754 32.7002C54.2754 32.7002 55.1753 33.5 55.1753 34.5C55.1753 35.5 54.3755 36.4004 53.3755 36.4004H53.2754C52.7754 36.4004 52.2755 36.1998 51.8755 35.7998V37.5996H51.1753V32.7998V32.7998ZM53.1753 33.2998C52.4753 33.2998 51.8755 33.8996 51.8755 34.5996C51.8755 35.2996 52.4753 35.9004 53.1753 35.9004C53.8753 35.9004 54.4751 35.2996 54.4751 34.5996C54.4751 33.8996 53.8753 33.2998 53.1753 33.2998Z" fill="white"/>
<path d="M55.8755 32.7998H56.5752V33.2998C56.8752 32.8998 57.3751 32.7002 57.9751 32.7002C58.9751 32.7002 59.8755 33.5 59.8755 34.5C59.8755 35.5 59.0752 36.4004 58.0752 36.4004H57.9751C57.4751 36.4004 56.9752 36.1998 56.5752 35.7998V37.5996H55.8755V32.7998V32.7998ZM57.7754 33.2998C57.0754 33.2998 56.4751 33.8996 56.4751 34.5996C56.4751 35.2996 57.0754 35.9004 57.7754 35.9004C58.4754 35.9004 59.0752 35.2996 59.0752 34.5996C59.0752 33.8996 58.4754 33.2998 57.7754 33.2998Z" fill="white"/>
<path d="M61.0752 34.7995C61.1752 35.4995 61.6755 36.0001 62.3755 35.9001C62.8755 35.9001 63.2752 35.6995 63.5752 35.2995H64.2754C63.9754 35.9995 63.2751 36.4997 62.4751 36.4997C61.3751 36.4997 60.5752 35.5997 60.5752 34.4997C60.5752 33.4997 61.3751 32.6993 62.4751 32.5993C63.4751 32.4993 64.3755 33.2995 64.3755 34.2995C64.3755 34.3995 64.3755 34.4993 64.3755 34.5993V34.6999L61.0752 34.7995ZM63.6753 34.1999C63.5753 33.5999 63.0751 33.1999 62.4751 33.1999C61.8751 33.1999 61.2753 33.5999 61.1753 34.1999H63.6753Z" fill="white"/>
<path d="M68.1751 35.9004C67.8751 36.3004 67.3752 36.5 66.7752 36.5C65.7752 36.5 64.8749 35.5996 64.9749 34.5996C64.9749 33.5996 65.7752 32.7998 66.7752 32.7998C67.2752 32.7998 67.7751 33.0004 68.1751 33.4004V31.5996H68.8753V36.5H68.1751V35.9004ZM66.8753 35.9004C67.5753 35.9004 68.1751 35.2996 68.1751 34.5996C68.1751 33.8996 67.5753 33.2998 66.8753 33.2998C66.1753 33.2998 65.575 33.8996 65.575 34.5996C65.575 35.2996 66.1753 35.9004 66.8753 35.9004Z" fill="white"/>
<path d="M73.2754 36.4004H72.5752V35.9004C72.2752 36.3004 71.6753 36.5996 71.1753 36.5996C70.2753 36.5996 69.6753 36.1998 69.6753 35.2998V32.9004H70.3755V35.2002C70.3755 35.7002 70.6751 36 71.4751 36C72.0751 36.1 72.5753 35.6 72.6753 35V34.9004V32.7998H73.3755L73.2754 36.4004Z" fill="white"/>
<path d="M80.4751 33.2994C80.3751 32.4994 79.5754 31.9992 78.7754 32.0992C77.7754 31.9992 76.9755 32.6998 76.8755 33.6998C76.8755 33.7998 76.8755 33.9992 76.8755 34.0992C76.7755 35.0992 77.4751 35.8996 78.4751 35.9996C78.5751 35.9996 78.6753 35.9996 78.6753 35.9996C79.4753 36.0996 80.2755 35.4992 80.3755 34.5992H81.1753C80.9753 35.7992 79.8753 36.6992 78.6753 36.5992C77.2753 36.4992 76.1754 35.3 76.2754 33.9C76.3754 32.6 77.3753 31.4996 78.6753 31.4996C79.8753 31.3996 80.9752 32.2 81.0752 33.4H80.4751V33.2994Z" fill="white"/>
<path d="M83.8755 32.7002C84.9755 32.8002 85.6752 33.6998 85.5752 34.7998C85.4752 35.8998 84.5751 36.6 83.4751 36.5C82.4751 36.4 81.6753 35.5996 81.6753 34.5996C81.6753 33.5996 82.4751 32.7002 83.4751 32.7002C83.6751 32.7002 83.7755 32.7002 83.8755 32.7002ZM83.8755 33.2002C83.1755 33.2002 82.5752 33.8 82.5752 34.5C82.5752 35.2 83.1755 35.7998 83.8755 35.7998C84.5755 35.7998 85.1753 35.2 85.1753 34.5C85.1753 33.8 84.6751 33.2002 83.9751 33.2002H83.8755Z" fill="white"/>
<path d="M91.9751 34.0998C92.0751 33.6998 91.7754 33.3004 91.2754 33.2004C91.1754 33.2004 91.1752 33.2004 91.0752 33.2004C90.4752 33.2004 89.8755 33.5004 89.8755 34.2004V36.4006H89.1753V34.0998C89.2753 33.6998 88.9751 33.3004 88.4751 33.2004C88.3751 33.2004 88.3754 33.2004 88.2754 33.2004C87.6754 33.1004 87.1752 33.6004 87.0752 34.2004V34.3V36.4006H86.3755V32.9006H87.0752V33.4006C87.3752 33.0006 87.9751 32.7004 88.4751 32.7004C88.9751 32.7004 89.4753 32.9006 89.6753 33.4006C89.9753 33.0006 90.5752 32.7004 91.0752 32.7004C91.7752 32.6004 92.3751 33.2006 92.4751 33.9006V34.0002V36.4006H91.7754L91.9751 34.0998Z" fill="white"/>
<path d="M93.4751 32.7998H94.1753V33.2998C94.4753 32.8998 94.9752 32.7002 95.5752 32.7002C96.5752 32.7002 97.4755 33.5996 97.3755 34.5996C97.3755 35.5996 96.5752 36.4004 95.5752 36.4004C95.0752 36.4004 94.5753 36.1998 94.1753 35.7998V37.5996H93.4751V32.7998ZM95.4751 33.2998C94.7751 33.2998 94.1753 33.8996 94.1753 34.5996C94.1753 35.2996 94.7751 35.9004 95.4751 35.9004C96.1751 35.9004 96.7754 35.2996 96.7754 34.5996C96.8754 33.8996 96.2753 33.2998 95.6753 33.2998C95.5753 33.2998 95.4751 33.2998 95.4751 33.2998Z" fill="white"/>
<path d="M101.775 36.4004H101.075V35.9004C100.775 36.3004 100.175 36.5996 99.6753 36.5996C98.7753 36.5996 98.1753 36.1998 98.1753 35.2998V32.9004H98.8755V35.2002C98.8755 35.7002 99.1751 36 99.9751 36C100.575 36.1 101.075 35.5996 101.175 35.0996V35V32.9004H101.875L101.775 36.4004Z" fill="white"/>
<path d="M102.875 31.7002H103.575V32.7998H104.575V33.2998H103.575V35.5C103.575 35.8 103.775 35.9004 104.175 35.9004C104.375 35.9004 104.475 35.9004 104.675 35.9004V36.5C104.375 36.5 104.175 36.5996 103.875 36.5996C103.175 36.5996 102.975 36.2998 102.975 35.7998V33.5H102.175V33H102.975L102.875 31.7002Z" fill="white"/>
<path d="M105.675 34.7995C105.775 35.4995 106.275 36.0001 106.975 35.9001C107.475 35.9001 107.875 35.6995 108.175 35.2995H108.875C108.575 35.9995 107.875 36.4997 107.075 36.4997C105.975 36.4997 105.175 35.6993 105.075 34.5993C105.075 33.4993 105.875 32.6993 106.975 32.5993H107.075C108.075 32.4993 108.975 33.2995 108.975 34.2995C108.975 34.3995 108.975 34.4993 108.975 34.5993V34.6999L105.675 34.7995ZM108.175 34.1999C108.075 33.5999 107.575 33.1999 106.975 33.1999C106.375 33.1999 105.775 33.5999 105.675 34.1999H108.175Z" fill="white"/>
<path d="M109.575 32.7998H110.275V33.5C110.475 33 110.975 32.7002 111.475 32.7002C111.575 32.7002 111.775 32.7002 111.875 32.7002V33.5C111.675 33.5 111.575 33.4004 111.375 33.4004C110.775 33.4004 110.275 33.8004 110.275 34.4004C110.275 34.5004 110.275 34.4996 110.275 34.5996V36.4004H109.575V32.7998Z" fill="white"/>
<path d="M114.775 31.5H117.275C118.775 31.5 119.375 32.5004 119.375 33.9004C119.375 35.3004 118.775 36.4004 117.275 36.4004H114.775V31.5ZM117.175 35.7002C118.375 35.7002 118.575 34.6998 118.575 33.7998C118.575 32.8998 118.275 32.0996 117.075 32.0996H115.475V35.7002H117.175Z" fill="white"/>
<path d="M120.575 34.7995C120.675 35.4995 121.175 36.0001 121.875 35.9001C122.375 35.9001 122.775 35.6995 123.075 35.2995H123.775C123.475 35.9995 122.775 36.4997 121.975 36.4997C120.875 36.4997 120.075 35.6993 119.975 34.5993C119.975 33.4993 120.775 32.6993 121.875 32.5993H121.975C122.975 32.4993 123.875 33.2995 123.875 34.2995C123.875 34.3995 123.875 34.4993 123.875 34.5993V34.6999L120.575 34.7995ZM123.175 34.1999C123.075 33.5999 122.575 33.1999 121.875 33.1999C121.275 33.1999 120.675 33.5999 120.575 34.1999H123.175Z" fill="white"/>
<path d="M125.075 35.2998C125.075 35.5998 125.375 36 126.175 36C127.075 36 127.275 35.7004 127.275 35.4004C127.275 35.1004 127.175 35.0004 126.575 34.9004L125.475 34.7002C124.975 34.7002 124.575 34.2998 124.475 33.7998C124.475 32.9998 125.075 32.7002 126.075 32.7002C127.275 32.7002 127.775 33.2004 127.775 33.9004H127.075C127.075 33.5004 126.675 33.2002 125.975 33.2002C125.575 33.2002 125.075 33.3002 125.075 33.7002C125.075 33.9002 125.175 34.0996 125.675 34.0996L126.675 34.2002C127.575 34.3002 127.875 34.6996 127.875 35.0996C127.875 35.8996 127.175 36.2998 126.075 36.2998C125.275 36.2998 124.275 36.0996 124.275 35.0996L125.075 35.2998Z" fill="white"/>
<path d="M128.575 31.4004H129.275V32.2002H128.575V31.4004ZM128.575 32.7998H129.275V36.4004H128.575V32.7998Z" fill="white"/>
<path d="M133.275 32.7998H133.975V36C133.975 37.3 133.375 37.7998 131.875 37.7998C131.075 37.7998 130.175 37.7002 130.075 36.7002H130.775C130.875 37.2002 131.275 37.2998 131.975 37.2998C132.975 37.2998 133.275 36.8002 133.275 36.2002V35.7002C132.975 36.1002 132.475 36.4004 131.875 36.4004C130.875 36.4004 130.075 35.5 130.075 34.5C130.075 33.5 130.875 32.7002 131.875 32.7002C132.375 32.7002 132.975 32.8998 133.275 33.2998V32.7998ZM131.975 33.2998C131.275 33.2998 130.775 33.8 130.675 34.5V34.5996C130.675 35.2996 131.175 35.8004 131.775 35.9004C131.875 35.9004 131.875 35.9004 131.975 35.9004C132.675 36.0004 133.275 35.4998 133.275 34.7998C133.275 34.6998 133.275 34.6996 133.275 34.5996C133.275 33.8996 132.775 33.2998 132.075 33.2998C132.075 33.2998 132.075 33.2998 131.975 33.2998Z" fill="white"/>
<path d="M134.775 32.7998H135.475V33.2998C135.775 32.8998 136.375 32.5996 136.875 32.5996C137.775 32.5996 138.375 33.0004 138.375 33.9004V36.2998H137.675V34C137.675 33.5 137.375 33.2002 136.575 33.2002C135.975 33.1002 135.475 33.6002 135.375 34.2002V34.2998V36.4004H134.675L134.775 32.7998Z" fill="white"/>
<path d="M141.675 31.5H142.375V36.4004H141.675V31.5Z" fill="white"/>
<path d="M143.375 32.7998H144.075V33.2998C144.375 32.8998 144.975 32.5996 145.475 32.5996C146.375 32.5996 146.975 33.0004 146.975 33.9004V36.2998H146.275V34C146.275 33.5 145.975 33.2002 145.175 33.2002C144.575 33.1002 144.075 33.6002 143.975 34.2002V34.2998V36.4004H143.275L143.375 32.7998Z" fill="white"/>
<path d="M148.275 35.2998C148.275 35.5998 148.575 36 149.375 36C150.275 36 150.475 35.7004 150.475 35.4004C150.475 35.1004 150.375 35.0004 149.775 34.9004L148.675 34.7002C148.175 34.7002 147.775 34.2998 147.675 33.7998C147.675 32.9998 148.275 32.7002 149.275 32.7002C150.475 32.7002 150.975 33.2004 150.975 33.9004H150.275C150.275 33.5004 149.875 33.2002 149.175 33.2002C148.775 33.2002 148.275 33.3002 148.275 33.7002C148.275 33.9002 148.375 34.0996 148.875 34.0996L149.875 34.2002C150.775 34.3002 151.075 34.6996 151.075 35.0996C151.075 35.8996 150.375 36.2998 149.275 36.2998C148.475 36.2998 147.475 36.0996 147.475 35.0996L148.275 35.2998Z" fill="white"/>
<path d="M152.075 31.7002H152.775V32.7998H153.775V33.2998H152.775V35.5C152.775 35.8 152.975 35.9004 153.275 35.9004C153.475 35.9004 153.575 35.9004 153.775 35.9004V36.5C153.475 36.5 153.275 36.5996 152.975 36.5996C152.275 36.5996 152.075 36.2998 152.075 35.7998V33.5H151.275V33H152.075V31.7002Z" fill="white"/>
<path d="M154.275 31.4004H154.975V32.2002H154.275V31.4004ZM154.275 32.7998H154.975V36.4004H154.275V32.7998Z" fill="white"/>
<path d="M156.075 31.7002H156.775V32.7998H157.775V33.2998H156.775V35.5C156.775 35.8 156.975 35.9004 157.275 35.9004C157.475 35.9004 157.575 35.9004 157.775 35.9004V36.5C157.475 36.5 157.275 36.5996 156.975 36.5996C156.275 36.5996 156.075 36.2998 156.075 35.7998V33.5H155.275V33H156.075V31.7002Z" fill="white"/>
<path d="M161.875 36.4004H161.175V35.9004C160.875 36.3004 160.375 36.5996 159.775 36.5996C158.875 36.5996 158.275 36.1998 158.275 35.2998V32.9004H158.975V35.2002C158.975 35.7002 159.275 36 160.075 36C160.675 36.1 161.175 35.5996 161.275 35.0996V35V32.9004H161.975L161.875 36.4004Z" fill="white"/>
<path d="M163.075 31.7002H163.775V32.7998H164.775V33.2998H163.775V35.5C163.775 35.8 163.975 35.9004 164.275 35.9004C164.475 35.9004 164.575 35.9004 164.775 35.9004V36.5C164.475 36.5 164.275 36.5996 163.975 36.5996C163.275 36.5996 163.075 36.2998 163.075 35.7998V33.5H162.275V33H163.075V31.7002Z" fill="white"/>
<path d="M165.775 34.7995C165.875 35.4995 166.375 36.0001 167.075 35.9001C167.575 35.9001 167.975 35.6995 168.175 35.2995H168.975C168.675 35.9995 167.975 36.4997 167.175 36.4997C166.075 36.4997 165.275 35.6993 165.175 34.5993C165.175 33.4993 165.975 32.6993 167.075 32.5993H167.175C168.175 32.4993 169.075 33.2995 169.075 34.2995C169.075 34.3995 169.075 34.4993 169.075 34.5993V34.6999L165.775 34.7995ZM168.375 34.1999C168.275 33.5999 167.775 33.1999 167.175 33.1999C166.575 33.1999 166.075 33.5999 165.875 34.1999H168.375Z" fill="white"/>
</svg>
