<svg width="30" height="30" viewBox="0 0 30 30" fill="none" xmlns="http://www.w3.org/2000/svg">
<path d="M18.2399 18.3678C18.6322 18.0498 19.1331 17.8594 19.6758 17.8594C20.9364 17.8594 21.9609 18.8839 21.9609 20.1445C21.9609 21.4052 20.9364 22.4297 19.6758 22.4297C18.4151 22.4297 17.3906 21.4052 17.3906 20.1445C17.3906 19.9255 17.4211 19.7123 17.4801 19.5104L13.7325 16.7968C13.1764 17.5337 12.2928 18.0117 11.2969 18.0117C9.61348 18.0117 8.25 16.6482 8.25 14.9648C8.25 13.2814 9.61348 11.918 11.2969 11.918C12.2928 11.918 13.1764 12.3959 13.7325 13.1329L17.4801 10.4193C17.4211 10.2174 17.3906 10.0061 17.3906 9.78516C17.3906 8.52451 18.4151 7.5 19.6758 7.5C20.9364 7.5 21.9609 8.52451 21.9609 9.78516C21.9609 11.0458 20.9364 12.0703 19.6758 12.0703C19.1331 12.0703 18.6322 11.8799 18.2399 11.5619L14.2942 14.4164C14.3603 14.779 14.3603 15.1506 14.2942 15.5133L18.2399 18.3678Z" fill="white"/>
</svg>
