<svg width="111" height="40" viewBox="0 0 111 40" fill="none" xmlns="http://www.w3.org/2000/svg">
<path d="M18.2399 22.3678C18.6322 22.0498 19.1331 21.8594 19.6758 21.8594C20.9364 21.8594 21.9609 22.8839 21.9609 24.1445C21.9609 25.4052 20.9364 26.4297 19.6758 26.4297C18.4151 26.4297 17.3906 25.4052 17.3906 24.1445C17.3906 23.9255 17.4211 23.7123 17.4801 23.5104L13.7325 20.7968C13.1764 21.5337 12.2928 22.0117 11.2969 22.0117C9.61348 22.0117 8.25 20.6482 8.25 18.9648C8.25 17.2814 9.61348 15.918 11.2969 15.918C12.2928 15.918 13.1764 16.3959 13.7325 17.1329L17.4801 14.4193C17.4211 14.2174 17.3906 14.0061 17.3906 13.7852C17.3906 12.5245 18.4151 11.5 19.6758 11.5C20.9364 11.5 21.9609 12.5245 21.9609 13.7852C21.9609 15.0458 20.9364 16.0703 19.6758 16.0703C19.1331 16.0703 18.6322 15.8799 18.2399 15.5619L14.2942 18.4164C14.3603 18.779 14.3603 19.1506 14.2942 19.5133L18.2399 22.3678Z" fill="#F9C270"/>
<g filter="url(#filter0_d_9_263)">
<rect x="34" y="4" width="72" height="30" rx="15" fill="white"/>
</g>
<path d="M91.3928 12.3575C89.6543 10.9449 87.3724 10.1843 85.1993 10.1843C82.9175 10.1843 80.7443 10.9449 79.0058 12.3575C77.2672 13.6614 76.2893 15.5086 76.2893 17.5731C76.2893 19.4203 77.1586 21.2675 78.5711 22.5714C80.0923 23.8753 81.9395 24.6359 83.8954 24.7445V27.7869C83.8954 28.0043 84.1127 28.1129 84.2214 28.1129C84.33 28.1129 84.33 28.1129 84.4387 28.0043L89.9802 23.7666C91.0668 23.006 92.0447 22.0281 92.8053 21.0501C93.566 20.0722 94.0006 18.877 94.0006 17.5731C94.0006 15.5086 93.0227 13.6614 91.3928 12.3575Z" fill="#6EAF04"/>
<path d="M87.5892 15.4C87.5892 15.074 87.3719 14.8567 87.1546 14.8567C86.9373 14.8567 86.72 15.074 86.72 15.4C86.72 16.0519 86.72 16.5952 86.72 17.2472C86.72 17.3558 86.72 17.4645 86.72 17.5731C86.6113 17.4645 86.6113 17.3558 86.5026 17.3558C85.9594 16.5952 85.4161 15.9433 84.8728 15.1827C84.7641 14.9653 84.5468 14.8567 84.3295 14.9653C84.1122 14.9653 83.8949 15.1827 84.0035 15.4C84.0035 16.5952 84.0035 17.6818 84.0035 18.877C84.0035 19.0944 84.1122 19.203 84.2208 19.3117C84.5468 19.4203 84.8728 19.203 84.8728 18.7684C84.8728 18.2251 84.8728 17.6818 84.8728 17.0299V16.8125C84.9814 16.8125 84.9814 16.9212 85.0901 17.0299C85.6334 17.7905 86.1767 18.4424 86.72 19.203C86.8286 19.4203 87.0459 19.529 87.2633 19.4203C87.4806 19.3117 87.5892 19.0944 87.5892 18.877C87.5892 17.6818 87.5892 16.5952 87.5892 15.4Z" fill="white"/>
<path d="M89.3285 15.8346C89.4372 15.8346 89.5458 15.8346 89.6545 15.8346C89.9804 15.8346 90.3064 15.8346 90.6324 15.8346C90.741 15.8346 90.8497 15.8346 90.9584 15.726C91.1757 15.6173 91.2843 15.4 91.1757 15.1827C91.1757 14.9653 90.9584 14.8567 90.741 14.8567C90.1978 14.8567 89.5458 14.8567 89.0025 14.8567C88.5679 14.8567 88.4592 15.074 88.4592 15.4C88.4592 16.4866 88.4592 17.5731 88.4592 18.6597C88.4592 19.0944 88.6765 19.203 89.0025 19.203C89.5458 19.203 90.0891 19.203 90.6324 19.203C90.741 19.203 90.8497 19.203 90.8497 19.203C91.067 19.0944 91.1757 18.877 91.1757 18.6597C91.1757 18.5511 91.067 18.4424 90.9584 18.3337C90.8497 18.3337 90.741 18.3337 90.6324 18.3337C90.1978 18.3337 89.7631 18.3337 89.4372 18.3337V17.6818C89.5458 17.6818 89.5458 17.6818 89.6545 17.6818C90.0891 17.6818 90.4151 17.6818 90.8497 17.6818C91.1757 17.6818 91.393 17.4645 91.393 17.2472C91.393 17.0299 91.1757 16.8125 90.8497 16.8125C90.6324 16.8125 90.4151 16.8125 90.1978 16.8125C89.2198 16.7039 89.2198 16.7039 89.3285 15.8346C89.3285 15.8346 89.3285 15.9433 89.3285 15.8346Z" fill="white"/>
<path d="M81.3956 18.551C81.2869 18.551 81.1783 18.551 81.1783 18.551H79.9831V18.1164C79.9831 17.2472 79.9831 16.3779 79.9831 15.5086C79.9831 15.1826 79.7657 14.9653 79.5484 14.9653C79.3311 14.9653 79.0051 15.1826 79.0051 15.5086C79.0051 16.5952 79.0051 17.7904 79.0051 18.877C79.0051 19.0943 79.1138 19.4203 79.4398 19.4203H79.5484C79.8744 19.4203 81.0696 19.4203 81.3956 19.4203C81.6129 19.4203 81.8302 19.203 81.8302 18.9857C81.8302 18.7684 81.6129 18.551 81.3956 18.551Z" fill="white"/>
<path d="M83.2435 15.4C83.2435 15.074 83.1349 14.9653 82.8089 14.9653C82.4829 14.9653 82.3743 15.074 82.3743 15.4C82.3743 16.5952 82.3743 17.7904 82.3743 18.9857C82.3743 19.3117 82.4829 19.4203 82.8089 19.4203C83.1349 19.4203 83.2435 19.3117 83.2435 18.9857C83.2435 18.4424 83.2435 17.7904 83.2435 17.2472C83.2435 16.7039 83.2435 15.9433 83.2435 15.4Z" fill="white"/>
<path d="M55 28C59.9706 28 64 23.9706 64 19C64 14.0294 59.9706 10 55 10C50.0294 10 46 14.0294 46 19C46 23.9706 50.0294 28 55 28Z" fill="#00658F"/>
<path fill-rule="evenodd" clip-rule="evenodd" d="M57.2506 14.3578H55.7921C54.5086 14.3578 53.4585 15.4662 53.4585 16.7497V18.1499H52V20.0751H53.4002V23.8672H55.3254V20.0751H56.7255L57.2506 18.2082H55.3254V16.7497C55.3254 16.5164 55.5587 16.283 55.7921 16.283H57.2506V14.3578Z" fill="white"/>
<defs>
<filter id="filter0_d_9_263" x="29" y="0" width="82" height="40" filterUnits="userSpaceOnUse" color-interpolation-filters="sRGB">
<feFlood flood-opacity="0" result="BackgroundImageFix"/>
<feColorMatrix in="SourceAlpha" type="matrix" values="0 0 0 0 0 0 0 0 0 0 0 0 0 0 0 0 0 0 127 0" result="hardAlpha"/>
<feOffset dy="1"/>
<feGaussianBlur stdDeviation="2.5"/>
<feComposite in2="hardAlpha" operator="out"/>
<feColorMatrix type="matrix" values="0 0 0 0 0 0 0 0 0 0 0 0 0 0 0 0 0 0 0.25 0"/>
<feBlend mode="normal" in2="BackgroundImageFix" result="effect1_dropShadow_9_263"/>
<feBlend mode="normal" in="SourceGraphic" in2="effect1_dropShadow_9_263" result="shape"/>
</filter>
</defs>
</svg>
