<svg width="232" height="38" viewBox="0 0 232 38" fill="none" xmlns="http://www.w3.org/2000/svg">
<path d="M3.17538 28.0504L5.27539 33.9504L7.37537 28.0504H9.57538V36.1504H7.87537V33.9504L7.97537 30.0504L5.77539 36.0504H4.57538L2.37537 30.0504L2.47537 33.8504V36.0504H0.775391V27.9504H3.17538V28.0504Z" fill="white"/>
<path d="M11.2754 33.0504C11.2754 32.4504 11.3754 31.9504 11.5754 31.4504C11.7754 30.9504 12.1754 30.6504 12.5754 30.3504C12.9754 30.0504 13.5754 29.9504 14.0754 30.0504C14.7754 29.9504 15.5754 30.2504 15.9754 30.8504C16.4754 31.4504 16.7754 32.1504 16.8754 32.9504V33.4504C16.9754 34.2504 16.6754 35.1504 16.0754 35.7504C15.5754 36.2504 14.7754 36.5504 13.9754 36.5504C13.1754 36.6504 12.4754 36.3504 11.8754 35.7504C11.4754 34.8504 11.2754 33.9504 11.2754 33.0504ZM12.8754 33.1504C12.8754 33.6504 12.9754 34.1504 13.1754 34.5504C13.5754 35.0504 14.2754 35.1504 14.7754 34.7504C14.8754 34.6504 14.9754 34.6504 14.9754 34.5504C15.2754 34.1504 15.3754 33.5504 15.2754 33.0504C15.2754 32.6504 15.1754 32.1504 14.9754 31.7504C14.7754 31.4504 14.3754 31.3504 14.0754 31.2504C13.6754 31.2504 13.3754 31.4504 13.1754 31.7504C12.8754 32.1504 12.7754 32.6504 12.8754 33.1504Z" fill="white"/>
<path d="M20.0754 30.0504V30.7503C20.4754 30.2503 21.0755 29.9503 21.7755 29.9503C22.2755 29.8503 22.7754 30.1504 23.1754 30.5504C23.4754 31.0504 23.6754 31.6503 23.6754 32.2503V36.1504H22.0754V32.2503C22.0754 31.9503 21.9754 31.6503 21.8754 31.4503C21.6754 31.2503 21.4754 31.2503 21.1754 31.2503C20.7754 31.2503 20.3754 31.4504 20.1754 31.8504V36.0504H18.5754V30.0504H20.1754V30.0504H20.0754Z" fill="white"/>
<path d="M28.5753 33.2504H25.4753V31.9504H28.5753V33.2504Z" fill="white"/>
<path d="M35.4754 32.8504H32.2755V36.1504H30.5754V28.0504H35.7755V29.4504H32.2755V31.5504H35.4754V32.8504Z" fill="white"/>
<path d="M40.5754 31.5504H39.9754C39.4754 31.4504 39.0754 31.7504 38.8754 32.1504V36.1504H37.2754V30.1504H38.7754V30.8504C39.0754 30.3504 39.5754 30.0504 40.1754 30.0504C40.3754 30.0504 40.4754 30.0504 40.6754 30.1504V31.5504H40.5754Z" fill="white"/>
<path d="M41.7754 28.4504C41.7754 28.2504 41.8754 28.0504 41.9754 27.8504C42.1754 27.6504 42.3754 27.6504 42.6754 27.6504C42.8754 27.6504 43.1754 27.7504 43.3754 27.8504C43.5754 27.9504 43.5754 28.1504 43.5754 28.4504C43.5754 28.6504 43.4754 28.8504 43.3754 29.0504C43.1754 29.2504 42.9754 29.2504 42.6754 29.2504C42.4754 29.2504 42.1754 29.1504 41.9754 29.0504C41.7754 28.9504 41.7754 28.8504 41.7754 28.4504ZM43.5754 36.1504H41.9754V30.1504H43.5754V36.1504Z" fill="white"/>
<path d="M54.2754 32.8504C54.2754 33.7504 54.0754 34.6504 53.5754 35.4504C53.0754 36.1504 52.2754 36.4504 51.4754 36.3504C50.6754 36.3504 49.8754 36.0504 49.3754 35.4504C48.8754 34.7504 48.5754 33.8504 48.6754 32.9504V31.3504C48.6754 30.4504 48.8754 29.5504 49.3754 28.7504C49.8754 28.0504 50.6754 27.7504 51.4754 27.8504C52.2754 27.8504 53.0754 28.1504 53.5754 28.7504C54.0754 29.4504 54.3754 30.3504 54.2754 31.2504V32.8504ZM52.6754 31.0504C52.6754 30.5504 52.5754 30.0504 52.4754 29.5504C52.3754 29.2504 51.9754 29.0504 51.5754 29.0504C51.2754 29.0504 50.8754 29.1504 50.7754 29.5504C50.6754 29.9504 50.4754 30.4504 50.4754 30.9504V32.8504C50.4754 33.3504 50.5754 33.8504 50.6754 34.3504C50.8754 34.6504 51.1754 34.8504 51.5754 34.8504C51.8754 34.8504 52.2754 34.7504 52.3754 34.3504C52.5754 33.9504 52.5754 33.4504 52.5754 32.9504V31.0504H52.6754Z" fill="white"/>
<path d="M59.7754 32.8504C59.3754 33.2504 58.8754 33.4504 58.2754 33.4504C57.6754 33.4504 56.9754 33.2504 56.5754 32.7504C56.0754 32.2504 55.8754 31.5504 55.8754 30.8504C55.8754 30.3504 55.9754 29.8504 56.1754 29.3504C56.3754 28.9504 56.7754 28.5504 57.1754 28.3504C57.5754 28.1504 58.0754 28.0504 58.5754 28.0504C59.0754 28.0504 59.5754 28.1504 59.9754 28.5504C60.3754 28.8504 60.6754 29.2504 60.8754 29.6504C61.0754 30.1504 61.2754 30.7504 61.1754 31.3504V31.9504C61.2754 33.1504 60.8754 34.2504 60.1754 35.1504C59.4754 35.9504 58.3754 36.3504 57.2754 36.4504H56.9754V35.0504H57.2754C58.7754 34.7504 59.5754 34.0504 59.7754 32.8504ZM58.5754 32.2504C58.7754 32.2504 59.0754 32.1504 59.2754 32.0504C59.4754 31.9504 59.5754 31.7504 59.7754 31.5504V30.8504C59.7754 30.4504 59.6754 29.9504 59.4754 29.5504C59.1754 29.1504 58.6754 28.9504 58.1754 29.2504C58.0754 29.3504 57.9754 29.4504 57.8754 29.5504C57.3754 30.2504 57.3754 31.1504 57.8754 31.8504C57.9754 32.1504 58.2754 32.2504 58.5754 32.2504Z" fill="white"/>
<path d="M63.1754 30.7504C63.1754 30.5504 63.2754 30.3504 63.3754 30.1504C63.5754 29.9504 63.7754 29.9504 64.0754 29.9504C64.2754 29.9504 64.5754 30.0504 64.7754 30.1504C64.9754 30.2504 64.9754 30.4504 64.9754 30.7504C64.9754 30.9504 64.8754 31.1504 64.7754 31.3504C64.5754 31.5504 64.3754 31.5504 64.0754 31.5504C63.8754 31.5504 63.5754 31.4504 63.3754 31.3504C63.2754 31.1504 63.1754 30.9504 63.1754 30.7504ZM63.1754 35.3504C63.1754 35.1504 63.2754 34.9504 63.3754 34.7504C63.5754 34.5504 63.7754 34.5504 64.0754 34.5504C64.2754 34.5504 64.5754 34.6504 64.7754 34.7504C64.9754 34.8504 64.9754 35.0504 64.9754 35.3504C64.9754 35.5504 64.8754 35.7504 64.7754 35.9504C64.5754 36.1504 64.3754 36.1504 64.0754 36.1504C63.8754 36.1504 63.5754 36.0504 63.3754 35.9504C63.2754 35.7504 63.1754 35.5504 63.1754 35.3504Z" fill="white"/>
<path d="M72.2754 32.8504C72.2754 33.7504 72.0754 34.6504 71.5754 35.4504C71.0754 36.1504 70.2754 36.4504 69.4754 36.3504C68.6754 36.3504 67.8754 36.0504 67.3754 35.4504C66.8754 34.7504 66.5754 33.8504 66.6754 32.9504V31.3504C66.6754 30.4504 66.8754 29.5504 67.3754 28.7504C67.8754 28.0504 68.6754 27.7504 69.4754 27.8504C70.2754 27.8504 71.0754 28.1504 71.5754 28.7504C72.0754 29.4504 72.3754 30.3504 72.2754 31.2504V32.8504ZM70.6754 31.0504C70.6754 30.5504 70.5754 30.0504 70.4754 29.5504C70.3754 29.2504 69.9754 29.0504 69.5754 29.0504C69.2754 29.0504 68.8754 29.1504 68.7754 29.5504C68.6754 29.9504 68.4754 30.4504 68.4754 30.9504V32.8504C68.4754 33.3504 68.5754 33.8504 68.6754 34.3504C68.8754 34.6504 69.1754 34.8504 69.5754 34.8504C69.8754 34.8504 70.2754 34.7504 70.3754 34.3504C70.5754 33.9504 70.5754 33.4504 70.5754 32.9504V31.0504H70.6754Z" fill="white"/>
<path d="M79.3754 32.8504C79.3754 33.7504 79.1754 34.6504 78.6754 35.4504C78.1754 36.1504 77.3754 36.4504 76.5754 36.3504C75.7754 36.3504 74.9754 36.0504 74.4754 35.4504C73.9754 34.7504 73.6754 33.8504 73.7754 32.9504V31.3504C73.7754 30.4504 73.9754 29.5504 74.4754 28.7504C74.9754 28.0504 75.7754 27.7504 76.5754 27.8504C77.3754 27.8504 78.1754 28.1504 78.6754 28.7504C79.1754 29.4504 79.4754 30.3504 79.3754 31.2504V32.8504ZM77.7754 31.0504C77.7754 30.5504 77.6754 30.0504 77.5754 29.5504C77.4754 29.2504 77.0754 29.0504 76.6754 29.0504C76.3754 29.0504 75.9754 29.1504 75.8754 29.5504C75.7754 29.9504 75.5754 30.4504 75.5754 30.9504V32.8504C75.5754 33.3504 75.6754 33.8504 75.7754 34.3504C75.9754 34.6504 76.2754 34.8504 76.6754 34.8504C76.9754 34.8504 77.3754 34.7504 77.4754 34.3504C77.6754 33.9504 77.6754 33.4504 77.6754 32.9504V31.0504H77.7754Z" fill="white"/>
<path d="M84.2754 33.2504H81.1754V31.9504H84.2754V33.2504Z" fill="white"/>
<path d="M89.9753 36.1504H88.3753V29.9504L86.4753 30.5504V29.2504L89.7754 27.9504H89.9753V36.1504Z" fill="white"/>
<path d="M98.3754 30.1504C98.3754 30.5504 98.2754 30.8504 98.0754 31.1504C97.8754 31.3504 97.5754 31.7504 97.2754 31.8504C97.6754 32.0504 97.9754 32.3504 98.1754 32.6504C98.3754 32.9504 98.5754 33.3504 98.4754 33.7504C98.4754 34.3504 98.2754 35.0504 97.7754 35.4504C97.1754 35.9504 96.4754 36.1504 95.6754 36.0504C94.9754 36.0504 94.1754 35.8504 93.5754 35.3504C93.0754 34.9504 92.7754 34.2504 92.8754 33.6504C92.8754 33.2504 92.9754 32.8504 93.1754 32.5504C93.3754 32.2504 93.7754 31.9504 94.0754 31.7504C93.7754 31.5504 93.4754 31.3504 93.2754 31.0504C93.0754 30.7504 92.8754 30.3504 92.9754 30.0504C92.9754 29.4504 93.1754 28.8504 93.6754 28.4504C94.1754 28.0504 94.8754 27.8504 95.4754 27.8504C96.1754 27.8504 96.7754 28.0504 97.2754 28.4504C98.0754 28.8504 98.3754 29.4504 98.3754 30.1504ZM96.9754 33.7504C96.9754 33.4504 96.8754 33.1504 96.6754 32.9504C96.4754 32.7504 96.1754 32.6504 95.8754 32.6504C95.2754 32.6504 94.7754 33.1504 94.6754 33.7504C94.6754 34.3504 95.1754 34.8504 95.7754 34.9504C96.0754 34.9504 96.3754 34.8504 96.5754 34.6504C96.8754 34.3504 97.0754 34.0504 96.9754 33.7504ZM96.7754 30.1504C96.7754 29.8504 96.6754 29.5504 96.5754 29.3504C96.3754 29.1504 96.1754 29.0504 95.8754 29.0504C95.6754 29.0504 95.3754 29.1504 95.1754 29.2504C94.9754 29.4504 94.9754 29.7504 94.9754 30.0504C94.9754 30.3504 95.0754 30.6504 95.1754 30.8504C95.4754 31.2504 95.9754 31.3504 96.3754 31.0504C96.4754 31.0504 96.4754 30.9504 96.5754 30.8504C96.6754 30.6504 96.7754 30.4504 96.7754 30.1504Z" fill="white"/>
<path d="M100.475 30.7504C100.475 30.5504 100.575 30.3504 100.675 30.1504C100.875 29.9504 101.075 29.9504 101.375 29.9504C101.575 29.9504 101.875 30.0504 102.075 30.1504C102.275 30.2504 102.275 30.4504 102.275 30.7504C102.275 30.9504 102.175 31.1504 102.075 31.3504C101.875 31.5504 101.675 31.5504 101.375 31.5504C101.175 31.5504 100.875 31.4504 100.675 31.3504C100.475 31.2504 100.475 30.9504 100.475 30.7504ZM100.475 35.3504C100.475 35.1504 100.575 34.9504 100.675 34.7504C100.875 34.5504 101.075 34.5504 101.375 34.5504C101.575 34.5504 101.875 34.6504 102.075 34.7504C102.275 34.8504 102.275 35.0504 102.275 35.3504C102.275 35.5504 102.175 35.7504 102.075 35.9504C101.875 36.1504 101.675 36.1504 101.375 36.1504C101.175 36.1504 100.875 36.0504 100.675 35.9504C100.475 35.7504 100.475 35.5504 100.475 35.3504Z" fill="white"/>
<path d="M109.475 32.8504C109.475 33.7504 109.275 34.6504 108.775 35.4504C108.275 36.1504 107.475 36.4504 106.675 36.3504C105.875 36.3504 105.075 36.0504 104.575 35.4504C104.075 34.7504 103.775 33.8504 103.875 32.9504V31.3504C103.875 30.4504 104.075 29.5504 104.575 28.7504C105.075 28.0504 105.875 27.7504 106.675 27.8504C107.475 27.8504 108.275 28.1504 108.775 28.7504C109.275 29.4504 109.575 30.3504 109.475 31.2504V32.8504ZM107.875 31.0504C107.875 30.5504 107.775 30.0504 107.675 29.5504C107.575 29.2504 107.175 29.0504 106.775 29.0504C106.475 29.0504 106.075 29.1504 105.975 29.5504C105.875 29.9504 105.675 30.4504 105.675 30.9504V32.8504C105.675 33.3504 105.775 33.8504 105.875 34.3504C106.075 34.6504 106.375 34.8504 106.775 34.8504C107.075 34.8504 107.475 34.7504 107.575 34.3504C107.775 33.9504 107.775 33.4504 107.775 32.9504V31.0504H107.875Z" fill="white"/>
<path d="M116.675 32.8504C116.675 33.7504 116.475 34.6504 115.975 35.4504C115.475 36.1504 114.675 36.4504 113.875 36.3504C113.075 36.3504 112.275 36.0504 111.775 35.4504C111.275 34.7504 110.975 33.8504 111.075 32.9504V31.3504C111.075 30.4504 111.275 29.5504 111.775 28.7504C112.275 28.0504 113.075 27.7504 113.875 27.8504C114.675 27.8504 115.475 28.1504 115.975 28.7504C116.475 29.4504 116.775 30.3504 116.675 31.2504V32.8504ZM115.075 31.0504C115.075 30.5504 114.975 30.0504 114.875 29.5504C114.775 29.2504 114.375 29.0504 113.975 29.0504C113.675 29.0504 113.275 29.1504 113.175 29.5504C113.075 29.9504 112.875 30.4504 112.875 30.9504V32.8504C112.875 33.3504 112.975 33.8504 113.075 34.3504C113.275 34.6504 113.575 34.8504 113.975 34.8504C114.275 34.8504 114.675 34.7504 114.775 34.3504C114.975 33.9504 114.975 33.4504 114.975 32.9504V31.0504H115.075Z" fill="white"/>
<path d="M123.275 36.3504H122.275L124.975 28.4504H125.975L123.275 36.3504Z" fill="white"/>
<path d="M135.375 30.0504V30.8504C135.075 31.4504 134.675 31.9504 134.275 32.4504H135.575V33.1504C135.475 33.9504 135.275 34.5504 135.075 35.0504L135.275 35.2504C135.575 35.5504 135.875 35.7504 136.175 35.9504C136.575 36.1504 136.975 36.1504 137.475 36.1504H139.375C140.375 36.1504 141.275 36.1504 142.275 36.0504L142.075 36.9504H137.475C136.975 36.9504 136.375 36.8504 135.875 36.7504C135.475 36.5504 135.075 36.3504 134.775 35.9504C134.675 35.8504 134.675 35.8504 134.575 35.8504C134.375 35.8504 133.975 36.3504 133.575 37.2504L132.875 36.5504C133.375 35.6504 133.775 35.0504 134.275 34.9504C134.475 34.4504 134.675 33.9504 134.775 33.3504H133.275V32.4504C133.775 31.9504 134.175 31.4504 134.575 30.8504H133.175V29.9504H135.575L135.375 30.0504ZM135.375 29.0504L134.775 29.7504C134.275 29.2504 133.775 28.7504 133.175 28.2504L133.875 27.6504C134.375 28.0504 134.875 28.5504 135.375 29.0504ZM141.875 34.7504C141.875 35.3504 141.575 35.5504 140.875 35.5504H139.775L139.575 34.6504H140.675C140.875 34.6504 140.975 34.5504 140.975 34.3504V34.2504V28.6504H137.075V31.3504C137.075 32.7504 136.875 34.0504 136.375 35.3504L135.675 34.6504C136.075 33.5504 136.175 32.4504 136.175 31.3504V27.8504H141.975V34.6504H141.875V34.7504ZM139.275 29.0504V29.5504H140.575V30.3504H139.275V30.9504H140.575V31.7504H139.275V32.3504H140.275V34.5504H137.275V32.3504H138.275V31.6504H136.975V30.8504H138.275V30.2504H136.975V29.4504H138.275V28.9504H139.275V29.0504ZM139.575 32.8504H138.275V33.6504H139.675V32.8504H139.575Z" fill="white"/>
<path d="M148.775 37.1504H147.775V32.4504C146.975 34.0504 145.575 35.4504 143.975 36.3504L143.375 35.4504C144.775 34.7504 146.075 33.7504 146.875 32.3504H143.975V31.3504H147.575V29.8504H143.475V28.9504H147.575V27.5504H148.575V28.9504H152.575V29.8504H148.575V31.3504H152.175V32.2504H149.575C150.375 33.5504 151.575 34.5504 152.975 35.2504L152.275 36.1504C150.775 35.2504 149.575 33.9504 148.775 32.3504V37.1504Z" fill="white"/>
<path d="M155.875 34.7503C155.975 34.9503 156.075 35.1504 156.075 35.3504C156.075 35.5504 155.975 35.6504 155.875 35.9504C155.575 36.2504 155.075 36.2504 154.775 35.9504C154.475 35.6504 154.475 35.1504 154.775 34.8504C154.975 34.6504 155.175 34.6504 155.375 34.6504C155.475 34.5504 155.675 34.6503 155.875 34.7503Z" fill="white"/>
<path d="M157.775 32.6504L157.475 31.6504C158.375 30.3504 158.975 29.0504 159.375 27.5504L160.275 28.0504C160.075 28.8504 159.775 29.5504 159.375 30.3504V37.3504H158.475V32.1504C158.175 32.1504 157.975 32.4504 157.775 32.6504ZM163.875 28.1504V29.0504H162.075C162.075 29.4504 161.975 29.8504 161.875 30.3504H163.675V31.1504C163.375 34.0504 162.275 35.9504 160.575 37.0504L160.075 36.1504C160.875 35.5504 161.475 34.8504 161.875 33.9504C161.575 33.5504 161.175 33.2504 160.775 33.0504C160.575 33.3504 160.375 33.6504 160.175 33.9504L159.675 33.0504C160.575 31.8504 160.975 30.4504 161.075 29.0504H160.375V28.1504H163.875V28.1504ZM162.375 33.1504C162.575 32.5504 162.775 31.8504 162.875 31.2504H161.775C161.675 31.6504 161.575 32.0504 161.275 32.3504C161.675 32.5504 162.075 32.8504 162.375 33.1504ZM165.075 28.4504V34.8504H164.175V28.4504H165.075ZM164.575 37.0504L164.375 36.1504C164.675 36.1504 165.075 36.2504 165.375 36.2504C165.575 36.2504 165.675 36.1504 165.675 35.9504V35.8504V27.7504H166.675V36.0504C166.775 36.5504 166.375 37.0504 165.875 37.0504C165.775 37.0504 165.675 37.0504 165.675 37.0504H164.575Z" fill="white"/>
<path d="M168.675 32.6504L168.375 31.6504C169.175 30.3504 169.775 29.0504 170.075 27.5504L170.975 28.0504C170.775 28.7504 170.475 29.4504 170.275 29.9504V37.1504H169.375V31.7504C169.075 32.0504 168.875 32.3504 168.675 32.6504ZM172.075 34.1504H173.875V35.0504H172.075V36.9504H171.175V27.8504H174.175V31.0504H172.075V32.0504H173.875V32.9504H172.075V34.1504ZM173.175 30.1504V28.7504H172.075V30.1504H173.175ZM177.575 31.8504V32.6504C177.375 33.5504 177.075 34.3504 176.575 35.0504C176.975 35.4504 177.475 35.8504 178.075 36.1504L177.575 36.9504C176.975 36.6504 176.475 36.2504 175.975 35.8504C175.475 36.3504 174.775 36.7504 174.175 37.1504L173.575 36.3504C174.175 36.0504 174.775 35.6504 175.275 35.2504C174.875 34.5504 174.575 33.7504 174.475 32.9504H174.175V32.0504H177.575V31.8504V31.8504ZM174.575 31.0504V30.1504H176.475V28.7504H174.575V27.8504H177.475V31.0504H174.575V31.0504ZM175.975 34.3504C176.275 33.8504 176.575 33.3504 176.675 32.7504H175.375C175.375 33.3504 175.575 33.9504 175.975 34.3504Z" fill="white"/>
<path d="M187.175 37.0504H186.175V36.3504H181.575V37.0504H180.575V27.9504H187.175V37.0504ZM186.275 31.5504V28.9504H181.575V31.5504H186.275ZM186.275 35.3504V32.4504H181.575V35.3504H186.275Z" fill="white"/>
<path d="M191.975 29.1504V28.8504H190.175V28.1504H191.975V27.5504H192.875V28.1504H194.675V28.8504H192.875V29.1504H194.475V31.4504H192.875V31.7504H194.775V32.4504C195.075 31.8504 195.275 31.1504 195.275 30.5504V28.3504C196.375 28.3504 197.475 28.1504 198.475 27.7504L198.975 28.5504C198.075 28.8504 197.175 28.9504 196.275 29.0504V29.8504H199.275V30.7504H198.275V33.1504H197.375V30.7504H196.275C196.375 31.6504 196.075 32.5504 195.575 33.2504L194.775 32.9504C194.775 32.8504 194.875 32.8504 194.875 32.7504H192.975V33.3504H192.075V32.6504H190.175V31.9504H192.075V31.2504H190.475V28.9504H192.175V29.1504H191.975ZM192.075 29.9504V29.6504H191.175V29.9504H192.075ZM192.075 30.4504H191.175V30.7504H192.075V30.4504ZM198.175 37.0504H197.275V36.6504H192.275V36.9504H191.375V33.0504H198.175V37.0504ZM197.175 34.5504V33.9504H192.175V34.5504H197.175ZM197.175 35.8504V35.2504H192.175V35.8504H197.175ZM192.775 29.9504H193.675V29.6504H192.775V29.9504ZM193.675 30.4504H192.775V30.7504H193.675V30.4504Z" fill="white"/>
<path d="M203.575 27.8504C203.375 28.5504 203.075 29.3504 202.775 30.0504V37.0504H201.775V31.6504C201.575 31.9504 201.175 32.3504 200.975 32.6504L200.675 31.6504C201.675 30.4504 202.275 29.0504 202.775 27.5504L203.575 27.8504ZM209.875 34.0504H209.275V34.6504H207.075V36.1504C207.075 36.8504 206.775 37.0504 206.075 37.0504H204.975L204.775 36.1504H205.775C205.975 36.1504 206.075 36.0504 206.075 35.8504V35.7504V34.4504H203.875V33.8504H203.175V32.0504H209.775L209.875 34.0504ZM206.975 28.3504H209.875V29.2504H203.475V28.3504H205.975C205.875 28.1504 205.775 27.9504 205.775 27.6504L206.775 27.5504C206.775 27.8504 206.875 28.0504 206.975 28.3504ZM209.075 29.6504V31.7504H204.075V29.6504H209.075ZM208.975 33.7504V32.9504H204.275V33.7504H208.975ZM208.075 30.4504H204.975V31.0504H208.075V30.4504Z" fill="white"/>
<path d="M212.275 37.0504L211.575 36.3504C211.975 35.2504 212.175 34.0504 212.175 32.9504V27.9504H215.375V35.9504C215.375 36.6504 215.075 36.9504 214.475 36.9504H213.575L213.375 36.0504H214.175C214.375 36.0504 214.475 35.8504 214.475 35.4504V33.6504H212.975C212.975 34.7504 212.775 35.9504 212.275 37.0504ZM214.475 28.8504H212.975V30.3504H214.475V28.8504ZM212.975 32.6504H214.475V31.1504H212.975V32.6504ZM216.975 37.0504H216.075V27.9504H220.375C220.375 28.8504 220.375 29.7504 220.175 30.5504C219.975 31.0504 219.575 31.3504 219.075 31.2504H218.175L217.975 30.4504H219.075C219.175 30.4504 219.275 30.3504 219.275 30.2504C219.375 29.8504 219.475 29.4504 219.375 28.9504H216.975V31.8504H220.375V32.6504C220.175 33.5504 219.875 34.4504 219.475 35.2504C219.875 35.6504 220.375 36.0504 220.975 36.3504L220.475 37.1504C219.875 36.8504 219.375 36.4504 218.975 36.0504C218.575 36.5504 218.075 36.9504 217.475 37.1504L216.975 36.3504V37.0504V37.0504ZM216.975 36.2504C217.475 35.9504 217.975 35.5504 218.375 35.1504C217.775 34.3504 217.375 33.4504 217.075 32.5504H216.975V36.2504V36.2504ZM218.875 34.3504C219.175 33.7504 219.475 33.1504 219.575 32.5504H217.975C218.175 33.2504 218.475 33.8504 218.875 34.3504Z" fill="white"/>
<path d="M224.375 29.8504C224.675 29.5504 224.975 29.1504 225.275 28.8504H222.575V27.9504H226.375V28.7504C225.975 29.3504 225.475 29.9504 224.975 30.4504C225.075 30.5504 225.275 30.6504 225.475 30.9504L225.275 31.1504H226.775V31.9504C226.575 32.6504 226.275 33.2504 225.875 33.7504L225.275 33.1504C225.475 32.7504 225.675 32.3504 225.875 31.8504H225.075V35.9504C225.075 36.4504 224.775 36.8504 224.275 36.8504C224.175 36.8504 224.175 36.8504 224.075 36.8504H223.175L222.975 36.0504C223.275 36.0504 223.575 36.1504 223.775 36.1504C223.975 36.1504 224.075 36.0504 224.075 35.8504V35.7504V32.2504C223.675 33.4504 223.175 34.5504 222.575 35.5504L222.275 34.6504C222.875 33.8504 223.375 32.8504 223.675 31.9504H222.375V31.0504H224.475C223.975 30.5504 223.475 30.0504 222.875 29.6504L223.475 29.0504C223.775 29.3504 224.075 29.5504 224.375 29.8504ZM231.175 35.8504C231.075 36.5504 230.575 36.8504 229.675 36.8504H228.775L228.575 36.0504H229.575C229.975 36.0504 230.275 35.8504 230.375 35.4504C230.375 35.2504 230.475 34.6504 230.475 33.6504H229.075C228.975 34.1504 228.775 34.6504 228.575 35.1504C228.075 35.9504 227.275 36.5504 226.375 36.9504L225.775 36.1504C226.575 35.8504 227.175 35.3504 227.675 34.6504C227.875 34.3504 227.975 33.9504 228.175 33.6504H226.675V32.7504H228.375C228.375 32.4504 228.375 32.2504 228.475 31.9504H229.375L229.275 32.7504H231.375C231.275 34.5504 231.175 35.5504 231.175 35.8504ZM228.575 27.6504C228.475 27.8504 228.475 28.1504 228.375 28.3504H231.375V29.2504H230.675C230.475 29.8504 230.175 30.3504 229.775 30.8504C230.375 31.0504 230.875 31.3504 231.575 31.5504L230.975 32.3504C230.275 32.1504 229.675 31.8504 229.075 31.4504C228.475 31.7504 227.875 32.1504 227.275 32.3504L226.675 31.6504C227.175 31.4504 227.775 31.2504 228.275 30.9504C227.975 30.7504 227.675 30.3504 227.475 30.0504L228.175 29.7504C228.375 29.9504 228.675 30.3504 228.975 30.4504C229.275 30.1504 229.575 29.7504 229.775 29.3504H227.975C227.675 29.8504 227.275 30.2504 226.875 30.6504L226.275 29.9504C226.975 29.3504 227.475 28.5504 227.775 27.6504H228.575Z" fill="white"/>
<path d="M2.37143 1.05039L6.77142 0.0503924C7.27142 -0.0496076 7.77143 0.150368 7.87143 0.650368L9.9714 5.55039C10.1714 5.95039 10.0714 6.55038 9.67141 6.85038L7.07141 9.05039C8.67141 12.3504 11.3714 15.0504 14.6714 16.6504L16.8714 14.0504C17.1714 13.7504 17.6714 13.5503 18.1714 13.7503L23.0714 15.8504C23.4714 16.0504 23.7714 16.5504 23.6714 16.9504L22.6714 21.3504C22.5714 21.8504 22.1714 22.1504 21.6714 22.1504C10.5714 22.1504 1.57141 13.1504 1.57141 2.05039C1.47141 1.55039 1.87143 1.15039 2.37143 1.05039Z" fill="white"/>
<path d="M43.1753 13.5504C43.3753 15.8504 42.7753 18.1504 41.4753 20.0504C40.2753 21.5504 38.2753 22.4504 36.3753 22.3504C34.3753 22.5504 32.4753 21.6504 31.2753 20.1504C29.9753 18.2504 29.3753 16.0504 29.4753 13.7504V9.95038C29.4753 7.05038 30.0753 4.95038 31.2753 3.45038C32.5753 1.95038 34.4753 1.0504 36.3753 1.1504C38.3753 1.0504 40.2753 1.85041 41.4753 3.35041C42.7753 5.25041 43.3753 7.45037 43.2753 9.75037V13.5504H43.1753ZM39.1753 9.45038C39.2753 8.15038 38.9753 6.8504 38.4753 5.6504C38.0753 4.8504 37.1753 4.45042 36.2753 4.55042C35.3753 4.45042 34.5753 4.9504 34.0753 5.6504C33.5753 6.7504 33.2753 7.85042 33.3753 9.05042V14.0504C33.2753 15.3504 33.5753 16.6504 34.0753 17.8504C34.4753 18.6504 35.3753 19.1504 36.2753 19.1504C37.1753 19.2504 37.9753 18.7504 38.4753 18.0504C38.9753 16.9504 39.2753 15.6504 39.1753 14.4504V9.45038Z" fill="white"/>
<path d="M60.4753 6.95036C60.5753 7.85036 60.2753 8.8504 59.6753 9.5504C59.1753 10.2504 58.4753 10.9504 57.5753 11.3504C58.5753 11.7504 59.3753 12.4504 59.9753 13.2504C60.5753 14.1504 60.8753 15.1504 60.8753 16.2504C60.9753 17.9504 60.2753 19.5504 59.0753 20.5504C55.9753 22.6504 51.8753 22.6504 48.7753 20.5504C47.4753 19.4504 46.8753 17.8504 46.9753 16.2504C46.9753 15.1504 47.2753 14.1504 47.8753 13.2504C48.4753 12.4504 49.2753 11.7504 50.2753 11.3504C49.3753 10.9504 48.6753 10.3504 48.1753 9.5504C47.6753 8.7504 47.3753 7.85036 47.3753 6.95036C47.2753 5.35036 47.9753 3.85035 49.0753 2.75035C50.3753 1.65035 52.0753 1.05038 53.8753 1.15038C55.5753 1.05038 57.2753 1.65035 58.6753 2.75035C59.9753 3.85035 60.5753 5.35036 60.4753 6.95036ZM56.8753 16.1504C56.9753 15.3504 56.6753 14.5504 56.0753 13.9504C55.5753 13.4504 54.7753 13.1504 53.9753 13.1504C53.1753 13.0504 52.4753 13.3504 51.8753 13.9504C51.3753 14.5504 51.0753 15.3504 51.0753 16.1504C50.9753 16.9504 51.2753 17.7504 51.8753 18.3504C52.4753 18.9504 53.2753 19.2504 54.0753 19.1504C54.8753 19.2504 55.5753 18.9504 56.1753 18.3504C56.6753 17.7504 56.8753 16.9504 56.8753 16.1504ZM56.5753 7.15038C56.5753 6.45038 56.3753 5.75035 55.8753 5.25035C54.8753 4.35035 53.2753 4.35035 52.2753 5.25035C51.3753 6.35035 51.3753 7.95038 52.2753 9.15038C52.7753 9.65038 53.3753 9.95036 54.0753 9.95036C54.7753 10.0504 55.4753 9.75038 55.8753 9.15038C56.2753 8.55038 56.5753 7.85038 56.5753 7.15038Z" fill="white"/>
<path d="M78.7753 13.5504C78.9753 15.8504 78.3753 18.1504 77.0753 20.0504C75.8753 21.5504 73.8753 22.4504 71.9753 22.3504C69.9753 22.5504 68.0753 21.6504 66.8753 20.1504C65.5753 18.2504 64.9753 16.0504 65.0753 13.7504V9.95038C65.0753 7.05038 65.6753 4.95038 66.8753 3.45038C68.1753 1.95038 70.0753 1.0504 71.9753 1.1504C73.9753 1.0504 75.8753 1.85041 77.0753 3.35041C78.3753 5.25041 78.9753 7.45037 78.8753 9.75037V13.5504H78.7753ZM74.6753 9.45038C74.7753 8.15038 74.4753 6.8504 73.9753 5.6504C73.5753 4.8504 72.6753 4.45042 71.7753 4.55042C70.8753 4.45042 70.0753 4.9504 69.5753 5.6504C69.0753 6.7504 68.7753 7.85042 68.8753 9.05042V14.0504C68.7753 15.3504 69.0753 16.6504 69.5753 17.8504C69.9753 18.6504 70.8753 19.1504 71.7753 19.1504C72.6753 19.2504 73.4753 18.7504 73.9753 18.0504C74.4753 16.9504 74.7753 15.6504 74.6753 14.4504V9.45038Z" fill="white"/>
<path d="M96.5753 13.5504C96.7753 15.8504 96.1753 18.1504 94.8753 20.0504C93.6753 21.5504 91.6754 22.4504 89.7754 22.3504C87.7754 22.5504 85.8754 21.6504 84.6754 20.1504C83.3754 18.2504 82.7753 16.0504 82.8753 13.7504V9.95038C82.8753 7.05038 83.4754 4.95038 84.6754 3.45038C85.9754 1.95038 87.8754 1.0504 89.7754 1.1504C91.7754 1.0504 93.6753 1.85041 94.8753 3.35041C96.1753 5.25041 96.7754 7.45037 96.6754 9.75037V13.5504H96.5753ZM92.4753 9.45038C92.5753 8.15038 92.2754 6.8504 91.7754 5.6504C91.3754 4.8504 90.4754 4.45042 89.5754 4.55042C88.6754 4.45042 87.8753 4.9504 87.3753 5.6504C86.8753 6.7504 86.5754 7.85042 86.6754 9.05042V14.0504C86.5754 15.3504 86.8753 16.6504 87.3753 17.8504C87.7753 18.6504 88.6754 19.1504 89.5754 19.1504C90.4754 19.2504 91.2754 18.7504 91.7754 18.0504C92.2754 16.9504 92.5753 15.6504 92.4753 14.4504V9.45038Z" fill="white"/>
<path d="M108.675 14.8504H100.675V11.5504H108.675V14.8504Z" fill="white"/>
<path d="M126.275 6.95036C126.375 7.85036 126.075 8.8504 125.475 9.5504C124.975 10.3504 124.275 10.9504 123.375 11.3504C124.375 11.7504 125.175 12.4504 125.775 13.2504C126.375 14.1504 126.675 15.1504 126.675 16.2504C126.775 17.9504 126.075 19.5504 124.875 20.5504C121.775 22.6504 117.675 22.6504 114.575 20.5504C113.275 19.4504 112.675 17.8504 112.775 16.2504C112.775 15.1504 113.075 14.1504 113.675 13.2504C114.275 12.4504 115.075 11.7504 116.075 11.3504C115.175 10.9504 114.475 10.3504 113.975 9.5504C113.475 8.7504 113.175 7.85036 113.175 6.95036C113.075 5.35036 113.775 3.85035 114.875 2.75035C116.175 1.65035 117.875 1.05038 119.675 1.15038C121.375 1.05038 123.075 1.65035 124.475 2.75035C125.775 3.85035 126.375 5.35036 126.275 6.95036ZM122.675 16.1504C122.775 15.3504 122.475 14.5504 121.875 13.9504C121.375 13.4504 120.575 13.1504 119.775 13.1504C118.975 13.0504 118.275 13.3504 117.675 13.9504C117.175 14.5504 116.875 15.3504 116.875 16.1504C116.775 16.9504 117.075 17.7504 117.675 18.3504C118.275 18.9504 119.075 19.2504 119.875 19.1504C120.675 19.2504 121.375 18.9504 121.975 18.3504C122.375 17.6504 122.675 16.9504 122.675 16.1504ZM122.175 7.15038C122.175 6.45038 121.975 5.75035 121.475 5.25035C120.475 4.35035 118.875 4.35035 117.875 5.25035C116.975 6.35035 116.975 7.95038 117.875 9.15038C118.375 9.65038 118.975 9.95036 119.675 9.95036C120.375 10.0504 121.075 9.75038 121.475 9.15038C121.975 8.55038 122.275 7.85038 122.175 7.15038Z" fill="white"/>
<path d="M143.975 6.95036C144.075 7.85036 143.775 8.8504 143.175 9.5504C142.675 10.3504 141.975 10.9504 141.075 11.3504C142.075 11.7504 142.875 12.4504 143.475 13.2504C144.075 14.1504 144.375 15.1504 144.375 16.2504C144.475 17.9504 143.775 19.5504 142.575 20.5504C139.475 22.6504 135.375 22.6504 132.275 20.5504C130.975 19.4504 130.375 17.8504 130.475 16.2504C130.475 15.1504 130.775 14.1504 131.375 13.2504C131.975 12.4504 132.775 11.7504 133.775 11.3504C132.875 10.9504 132.175 10.3504 131.675 9.5504C131.175 8.7504 130.875 7.85036 130.875 6.95036C130.775 5.35036 131.475 3.85035 132.575 2.75035C133.875 1.65035 135.575 1.05038 137.375 1.15038C139.075 1.05038 140.775 1.65035 142.175 2.75035C143.375 3.85035 144.075 5.35036 143.975 6.95036ZM140.375 16.1504C140.475 15.3504 140.175 14.5504 139.575 13.9504C139.075 13.4504 138.275 13.1504 137.475 13.1504C136.675 13.0504 135.975 13.3504 135.375 13.9504C134.275 15.1504 134.275 17.0504 135.375 18.2504C135.975 18.8504 136.775 19.1504 137.575 19.0504C138.375 19.1504 139.075 18.8504 139.675 18.2504C140.175 17.7504 140.375 16.9504 140.375 16.1504ZM139.975 7.15038C139.975 6.45038 139.775 5.75035 139.275 5.25035C138.275 4.35035 136.675 4.35035 135.675 5.25035C134.775 6.35035 134.775 7.95038 135.675 9.15038C136.175 9.65038 136.775 9.95036 137.475 9.95036C138.175 10.0504 138.875 9.75038 139.275 9.15038C139.775 8.55038 140.075 7.85038 139.975 7.15038Z" fill="white"/>
<path d="M148.975 11.9504L150.075 1.45038H161.575V4.8504H153.375L152.875 9.25037C153.775 8.75037 154.875 8.45038 155.975 8.45038C157.675 8.35038 159.375 8.95037 160.575 10.2504C161.775 11.6504 162.375 13.5504 162.275 15.3504C162.275 16.5504 162.075 17.7504 161.475 18.8504C160.875 19.8504 160.075 20.6504 159.075 21.2504C157.975 21.8504 156.675 22.1504 155.475 22.1504C154.275 22.1504 153.075 21.9504 152.075 21.3504C151.075 20.8504 150.175 20.1504 149.575 19.1504C148.975 18.2504 148.675 17.1504 148.575 16.0504H152.575C152.575 16.8504 152.975 17.5504 153.475 18.1504C154.075 18.6504 154.775 18.8504 155.575 18.8504C156.375 18.8504 157.175 18.4504 157.775 17.8504C158.275 17.0504 158.575 16.0504 158.575 14.9504C158.575 13.9504 158.275 12.9504 157.675 12.2504C157.075 11.6504 156.175 11.3504 155.275 11.3504C154.375 11.2504 153.575 11.5504 152.875 12.1504L152.575 12.4504L148.975 11.9504Z" fill="white"/>
<path d="M174.375 14.8504H166.375V11.5504H174.375V14.8504Z" fill="white"/>
<path d="M192.675 22.0504H178.575V19.1504L185.175 12.0504C185.975 11.2504 186.675 10.3504 187.275 9.45037C187.675 8.85037 187.975 8.05035 187.975 7.25035C187.975 6.45035 187.775 5.7504 187.275 5.0504C186.775 4.4504 186.075 4.15035 185.375 4.25035C184.575 4.25035 183.775 4.55038 183.175 5.15038C182.575 5.85038 182.275 6.75038 182.375 7.65038H178.275C178.275 6.45038 178.575 5.25035 179.175 4.25035C179.775 3.25035 180.675 2.45039 181.675 1.85039C182.875 1.25039 184.175 0.950366 185.475 0.950366C187.275 0.850366 188.975 1.35037 190.375 2.45037C191.575 3.55037 192.175 5.15035 192.075 6.75035C192.075 7.85035 191.775 8.85039 191.275 9.85039C190.475 11.1504 189.575 12.3504 188.575 13.4504L183.875 18.3504H192.775L192.675 22.0504Z" fill="white"/>
<path d="M210.475 22.0504H196.375V19.1504L202.975 12.0504C203.775 11.2504 204.475 10.3504 205.075 9.45037C205.475 8.85037 205.775 8.05035 205.775 7.25035C205.775 6.45035 205.575 5.7504 205.075 5.0504C204.575 4.4504 203.875 4.15035 203.175 4.25035C202.375 4.25035 201.575 4.55038 200.975 5.15038C200.375 5.85038 200.075 6.75038 200.175 7.65038H196.075C196.075 6.45038 196.375 5.25035 196.975 4.25035C197.575 3.25035 198.475 2.45039 199.475 1.85039C200.675 1.25039 201.975 0.950366 203.275 0.950366C205.075 0.850366 206.775 1.35037 208.175 2.45037C209.375 3.55037 209.975 5.15035 209.875 6.75035C209.875 7.85035 209.575 8.85039 209.075 9.85039C208.275 11.1504 207.375 12.3504 206.375 13.4504L201.675 18.3504H210.575L210.475 22.0504Z" fill="white"/>
<path d="M229.075 22.0504H214.975V19.1504L221.575 12.0504C222.375 11.2504 223.075 10.3504 223.675 9.45037C224.075 8.85037 224.375 8.05035 224.375 7.25035C224.375 6.45035 224.175 5.7504 223.675 5.0504C223.175 4.4504 222.475 4.15035 221.775 4.25035C220.975 4.25035 220.175 4.55038 219.575 5.15038C218.975 5.85038 218.675 6.75038 218.775 7.65038H214.575C214.575 6.45038 214.875 5.25035 215.475 4.25035C216.075 3.25035 216.975 2.45039 217.975 1.85039C219.175 1.25039 220.475 0.950366 221.775 0.950366C223.575 0.850366 225.275 1.35037 226.675 2.45037C227.875 3.55037 228.475 5.15035 228.375 6.75035C228.375 7.85035 228.075 8.85039 227.575 9.85039C226.775 11.1504 225.875 12.3504 224.875 13.4504L220.175 18.3504H229.075V22.0504Z" fill="white"/>
</svg>
