<svg width="29" height="29" viewBox="0 0 29 29" fill="none" xmlns="http://www.w3.org/2000/svg">
<path d="M14.6748 27.2998C21.8545 27.2998 27.6748 21.4795 27.6748 14.2998C27.6748 7.1201 21.8545 1.2998 14.6748 1.2998C7.4951 1.2998 1.6748 7.1201 1.6748 14.2998C1.6748 21.4795 7.4951 27.2998 14.6748 27.2998Z" stroke="white" stroke-width="2"/>
<path fill-rule="evenodd" clip-rule="evenodd" d="M14.8891 9.24121C16.7891 9.24121 18.7891 9.34121 20.6891 9.54121C21.1891 9.74121 21.5891 10.1412 21.7891 10.6412C21.9891 11.8412 22.0891 13.1412 22.0891 14.3412C22.0891 15.5412 21.9891 16.7412 21.7891 17.9412C21.6891 18.4412 21.2891 18.8412 20.6891 19.0412C18.7891 19.2412 16.8891 19.3412 14.8891 19.3412C12.7891 19.3412 10.6891 19.2412 8.58906 19.0412C8.08906 18.9412 7.68906 18.5412 7.48906 18.0412C7.38906 16.7412 7.28906 15.5412 7.28906 14.3412C7.28906 13.1412 7.38906 11.8412 7.58906 10.6412C7.78906 10.1412 8.18906 9.64121 8.68906 9.54121C9.58906 9.34121 10.3891 9.34121 11.2891 9.34121H11.8891C12.9891 9.34121 13.9891 9.34121 14.4891 9.34121H14.8891V9.24121Z" fill="white"/>
<path d="M13.0891 16.6412L17.1891 14.3412L13.0891 11.9412V16.6412Z" fill="#4D4D4D"/>
</svg>
