<svg width="30" height="30" viewBox="0 0 30 30" fill="none" xmlns="http://www.w3.org/2000/svg">
<path d="M22.9054 10.815C22.8163 10.4591 22.6349 10.1329 22.3794 9.86955C22.1239 9.60618 21.8035 9.41489 21.4504 9.315C20.1604 9 15.0004 9 15.0004 9C15.0004 9 9.84043 9 8.55043 9.345C8.19736 9.44489 7.87691 9.63618 7.62144 9.89955C7.36597 10.1629 7.18452 10.4891 7.09543 10.845C6.85934 12.1542 6.74386 13.4822 6.75043 14.8125C6.74201 16.1528 6.8575 17.491 7.09543 18.81C7.19365 19.1549 7.37916 19.4686 7.63404 19.7209C7.88891 19.9731 8.20454 20.1554 8.55043 20.25C9.84043 20.595 15.0004 20.595 15.0004 20.595C15.0004 20.595 20.1604 20.595 21.4504 20.25C21.8035 20.1501 22.1239 19.9588 22.3794 19.6954C22.6349 19.4321 22.8163 19.1059 22.9054 18.75C23.1397 17.4507 23.2552 16.1328 23.2504 14.8125C23.2588 13.4722 23.1434 12.134 22.9054 10.815Z" fill="white"/>
<path d="M13.3125 16.4054C13.3125 16.7889 13.7264 17.0296 14.0597 16.8401L16.8607 15.2471C17.1978 15.0554 17.1978 14.5696 16.8607 14.3779L14.0597 12.7849C13.7264 12.5953 13.3125 12.8361 13.3125 13.2195V16.4054Z" fill="#F9C270"/>
</svg>
